<svg width="308" height="49" viewBox="0 0 308 49" fill="none" xmlns="http://www.w3.org/2000/svg">
    <rect x="2" y="2" width="304" height="45" rx="16" fill="url(#paint0_linear_225_980)"
        stroke="url(#paint1_linear_225_980)" stroke-width="4" />
    <path
        d="M121.13 29V17.3636H125.278C126.179 17.3636 126.927 17.5189 127.522 17.8295C128.121 18.1402 128.567 18.5701 128.863 19.1193C129.158 19.6648 129.306 20.2955 129.306 21.0114C129.306 21.7235 129.156 22.3504 128.857 22.892C128.562 23.4299 128.115 23.8485 127.516 24.1477C126.922 24.447 126.174 24.5966 125.272 24.5966H122.13V23.0852H125.113C125.681 23.0852 126.143 23.0038 126.499 22.8409C126.859 22.678 127.122 22.4413 127.289 22.1307C127.456 21.8201 127.539 21.447 127.539 21.0114C127.539 20.572 127.454 20.1913 127.283 19.8693C127.117 19.5473 126.853 19.3011 126.494 19.1307C126.138 18.9564 125.67 18.8693 125.09 18.8693H122.886V29H121.13ZM126.874 23.75L129.749 29H127.749L124.931 23.75H126.874ZM134.958 29.1761C134.098 29.1761 133.358 28.9924 132.737 28.625C132.119 28.2538 131.642 27.733 131.305 27.0625C130.971 26.3883 130.805 25.5985 130.805 24.6932C130.805 23.7992 130.971 23.0114 131.305 22.3295C131.642 21.6477 132.112 21.1155 132.714 20.733C133.32 20.3504 134.028 20.1591 134.839 20.1591C135.331 20.1591 135.808 20.2405 136.271 20.4034C136.733 20.5663 137.147 20.822 137.515 21.1705C137.882 21.5189 138.172 21.9716 138.384 22.5284C138.596 23.0814 138.702 23.7538 138.702 24.5455V25.1477H131.765V23.875H137.038C137.038 23.428 136.947 23.0322 136.765 22.6875C136.583 22.339 136.327 22.0644 135.998 21.8636C135.672 21.6629 135.29 21.5625 134.85 21.5625C134.373 21.5625 133.956 21.6799 133.6 21.9148C133.248 22.1458 132.975 22.4489 132.782 22.8239C132.593 23.1951 132.498 23.5985 132.498 24.0341V25.0284C132.498 25.6117 132.6 26.108 132.805 26.517C133.013 26.9261 133.303 27.2386 133.674 27.4545C134.045 27.6667 134.479 27.7727 134.975 27.7727C135.297 27.7727 135.591 27.7273 135.856 27.6364C136.121 27.5417 136.35 27.4015 136.543 27.2159C136.737 27.0303 136.884 26.8011 136.987 26.5284L138.594 26.8182C138.466 27.2917 138.235 27.7064 137.901 28.0625C137.572 28.4148 137.157 28.6894 136.657 28.8864C136.161 29.0795 135.594 29.1761 134.958 29.1761ZM144.246 32.4545C143.553 32.4545 142.957 32.3636 142.457 32.1818C141.96 32 141.555 31.7595 141.241 31.4602C140.926 31.161 140.692 30.8333 140.536 30.4773L141.996 29.875C142.099 30.0417 142.235 30.2178 142.406 30.4034C142.58 30.5928 142.815 30.7538 143.11 30.8864C143.409 31.0189 143.794 31.0852 144.263 31.0852C144.907 31.0852 145.44 30.928 145.86 30.6136C146.281 30.303 146.491 29.8068 146.491 29.125V27.4091H146.383C146.281 27.5947 146.133 27.8011 145.94 28.0284C145.75 28.2557 145.489 28.4527 145.156 28.6193C144.822 28.786 144.388 28.8693 143.854 28.8693C143.165 28.8693 142.544 28.7083 141.991 28.3864C141.442 28.0606 141.006 27.5814 140.684 26.9489C140.366 26.3125 140.207 25.5303 140.207 24.6023C140.207 23.6742 140.364 22.8788 140.678 22.2159C140.996 21.553 141.432 21.0455 141.985 20.6932C142.538 20.3371 143.165 20.1591 143.866 20.1591C144.407 20.1591 144.845 20.25 145.178 20.4318C145.512 20.6098 145.771 20.8182 145.957 21.0568C146.146 21.2955 146.292 21.5057 146.394 21.6875H146.519V20.2727H148.184V29.1932C148.184 29.9432 148.01 30.5587 147.661 31.0398C147.313 31.5208 146.841 31.8769 146.246 32.108C145.656 32.339 144.989 32.4545 144.246 32.4545ZM144.229 27.4602C144.718 27.4602 145.131 27.3466 145.468 27.1193C145.809 26.8883 146.067 26.5587 146.241 26.1307C146.419 25.6989 146.508 25.1818 146.508 24.5795C146.508 23.9924 146.421 23.4754 146.246 23.0284C146.072 22.5814 145.817 22.233 145.479 21.983C145.142 21.7292 144.726 21.6023 144.229 21.6023C143.718 21.6023 143.292 21.7348 142.951 22C142.61 22.2614 142.353 22.6174 142.178 23.0682C142.008 23.5189 141.923 24.0227 141.923 24.5795C141.923 25.1515 142.01 25.6534 142.184 26.0852C142.358 26.517 142.616 26.8542 142.957 27.0966C143.301 27.339 143.726 27.4602 144.229 27.4602ZM150.462 29V20.2727H152.161V29H150.462ZM151.32 18.9261C151.025 18.9261 150.771 18.8277 150.559 18.6307C150.351 18.4299 150.246 18.1913 150.246 17.9148C150.246 17.6345 150.351 17.3958 150.559 17.1989C150.771 16.9981 151.025 16.8977 151.32 16.8977C151.616 16.8977 151.868 16.9981 152.076 17.1989C152.288 17.3958 152.394 17.6345 152.394 17.9148C152.394 18.1913 152.288 18.4299 152.076 18.6307C151.868 18.8277 151.616 18.9261 151.32 18.9261ZM160.987 22.4034L159.447 22.6761C159.382 22.4792 159.28 22.2917 159.14 22.1136C159.004 21.9356 158.818 21.7898 158.583 21.6761C158.348 21.5625 158.055 21.5057 157.702 21.5057C157.221 21.5057 156.82 21.6136 156.498 21.8295C156.176 22.0417 156.015 22.3163 156.015 22.6534C156.015 22.9451 156.123 23.1799 156.339 23.358C156.555 23.536 156.903 23.6818 157.384 23.7955L158.771 24.1136C159.574 24.2992 160.172 24.5852 160.566 24.9716C160.96 25.358 161.157 25.8598 161.157 26.4773C161.157 27 161.005 27.4659 160.702 27.875C160.403 28.2803 159.985 28.5985 159.447 28.8295C158.913 29.0606 158.293 29.1761 157.589 29.1761C156.612 29.1761 155.814 28.9678 155.197 28.5511C154.579 28.1307 154.201 27.5341 154.06 26.7614L155.702 26.5114C155.805 26.9394 156.015 27.2633 156.333 27.483C156.651 27.6989 157.066 27.8068 157.577 27.8068C158.134 27.8068 158.579 27.6913 158.913 27.4602C159.246 27.2254 159.413 26.9394 159.413 26.6023C159.413 26.3295 159.31 26.1004 159.106 25.9148C158.905 25.7292 158.596 25.589 158.18 25.4943L156.702 25.1705C155.888 24.9848 155.286 24.6894 154.896 24.2841C154.509 23.8788 154.316 23.3655 154.316 22.7443C154.316 22.2292 154.46 21.7784 154.748 21.392C155.036 21.0057 155.433 20.7045 155.941 20.4886C156.449 20.2689 157.03 20.1591 157.685 20.1591C158.629 20.1591 159.371 20.3636 159.913 20.7727C160.454 21.178 160.812 21.7216 160.987 22.4034ZM167.099 20.2727V21.6364H162.332V20.2727H167.099ZM163.61 18.1818H165.309V26.4375C165.309 26.767 165.358 27.0152 165.457 27.1818C165.555 27.3447 165.682 27.4564 165.837 27.517C165.996 27.5739 166.169 27.6023 166.354 27.6023C166.491 27.6023 166.61 27.5928 166.712 27.5739C166.815 27.5549 166.894 27.5398 166.951 27.5284L167.258 28.9318C167.159 28.9697 167.019 29.0076 166.837 29.0455C166.656 29.0871 166.428 29.1098 166.156 29.1136C165.709 29.1212 165.292 29.0417 164.906 28.875C164.519 28.7083 164.207 28.4508 163.968 28.1023C163.729 27.7538 163.61 27.3163 163.61 26.7898V18.1818ZM168.978 29V20.2727H170.62V21.6591H170.711C170.87 21.1894 171.15 20.8201 171.552 20.5511C171.957 20.2784 172.415 20.142 172.927 20.142C173.033 20.142 173.158 20.1458 173.302 20.1534C173.45 20.161 173.565 20.1705 173.648 20.1818V21.8068C173.58 21.7879 173.459 21.767 173.285 21.7443C173.111 21.7178 172.936 21.7045 172.762 21.7045C172.361 21.7045 172.003 21.7898 171.688 21.9602C171.378 22.1269 171.131 22.3598 170.95 22.6591C170.768 22.9545 170.677 23.2917 170.677 23.6705V29H168.978ZM177.58 29.1932C177.027 29.1932 176.527 29.0909 176.08 28.8864C175.633 28.678 175.279 28.3769 175.018 27.983C174.76 27.589 174.631 27.1061 174.631 26.5341C174.631 26.0417 174.726 25.6364 174.915 25.3182C175.105 25 175.361 24.7481 175.683 24.5625C176.004 24.3769 176.364 24.2367 176.762 24.142C177.16 24.0473 177.565 23.9754 177.978 23.9261C178.501 23.8655 178.925 23.8163 179.251 23.7784C179.576 23.7367 179.813 23.6705 179.961 23.5795C180.109 23.4886 180.183 23.3409 180.183 23.1364V23.0966C180.183 22.6004 180.042 22.2159 179.762 21.9432C179.486 21.6705 179.073 21.5341 178.523 21.5341C177.951 21.5341 177.501 21.661 177.171 21.9148C176.845 22.1648 176.62 22.4432 176.495 22.75L174.898 22.3864C175.088 21.8561 175.364 21.428 175.728 21.1023C176.095 20.7727 176.518 20.5341 176.995 20.3864C177.472 20.2348 177.974 20.1591 178.501 20.1591C178.849 20.1591 179.219 20.2008 179.609 20.2841C180.003 20.3636 180.37 20.5114 180.711 20.7273C181.056 20.9432 181.338 21.2519 181.558 21.6534C181.777 22.0511 181.887 22.5682 181.887 23.2045V29H180.228V27.8068H180.16C180.05 28.0265 179.885 28.2424 179.665 28.4545C179.446 28.6667 179.164 28.8428 178.819 28.983C178.474 29.1231 178.061 29.1932 177.58 29.1932ZM177.95 27.8295C178.419 27.8295 178.821 27.7367 179.154 27.5511C179.491 27.3655 179.747 27.1231 179.921 26.8239C180.099 26.5208 180.188 26.197 180.188 25.8523V24.7273C180.128 24.7879 180.01 24.8447 179.836 24.8977C179.665 24.947 179.47 24.9905 179.251 25.0284C179.031 25.0625 178.817 25.0947 178.609 25.125C178.4 25.1515 178.226 25.1742 178.086 25.1932C177.756 25.2348 177.455 25.3049 177.183 25.4034C176.914 25.5019 176.698 25.6439 176.535 25.8295C176.376 26.0114 176.296 26.2538 176.296 26.5568C176.296 26.9773 176.451 27.2955 176.762 27.5114C177.073 27.7235 177.469 27.8295 177.95 27.8295ZM184.15 29V20.2727H185.792V21.6591H185.883C186.042 21.1894 186.322 20.8201 186.724 20.5511C187.129 20.2784 187.587 20.142 188.099 20.142C188.205 20.142 188.33 20.1458 188.474 20.1534C188.621 20.161 188.737 20.1705 188.82 20.1818V21.8068C188.752 21.7879 188.631 21.767 188.457 21.7443C188.282 21.7178 188.108 21.7045 187.934 21.7045C187.532 21.7045 187.174 21.7898 186.86 21.9602C186.549 22.1269 186.303 22.3598 186.121 22.6591C185.94 22.9545 185.849 23.2917 185.849 23.6705V29H184.15Z"
        fill="white" />
    <defs>
        <linearGradient id="paint0_linear_225_980" x1="154" y1="4" x2="154" y2="45"
            gradientUnits="userSpaceOnUse">
            <stop stop-color="#F72046" />
            <stop offset="1" stop-color="#FF007A" />
        </linearGradient>
        <linearGradient id="paint1_linear_225_980" x1="154" y1="4" x2="154" y2="45"
            gradientUnits="userSpaceOnUse">
            <stop stop-color="#F7206D" stop-opacity="0.51" />
            <stop offset="1" stop-color="#F3189C" stop-opacity="0.2" />
        </linearGradient>
    </defs>
</svg>
    