<svg width="35" height="35" viewBox="0 0 35 35" fill="none" xmlns="http://www.w3.org/2000/svg">
<path d="M16.8802 19.5052L11.1927 25.1927C10.9253 25.4601 10.5851 25.5937 10.1719 25.5937C9.75868 25.5937 9.4184 25.4601 9.15104 25.1927C8.88368 24.9253 8.75 24.5851 8.75 24.1719C8.75 23.7587 8.88368 23.4184 9.15104 23.151L15.8594 16.4427C16.0052 16.2969 16.1632 16.1936 16.3333 16.1328C16.5035 16.072 16.6858 16.0417 16.8802 16.0417C17.0747 16.0417 17.2569 16.072 17.4271 16.1328C17.5972 16.1936 17.7552 16.2969 17.901 16.4427L24.6094 23.151C24.8767 23.4184 25.0104 23.7587 25.0104 24.1719C25.0104 24.5851 24.8767 24.9253 24.6094 25.1927C24.342 25.4601 24.0017 25.5937 23.5885 25.5937C23.1753 25.5937 22.8351 25.4601 22.5677 25.1927L16.8802 19.5052Z" fill="white"/>
</svg>
