<svg width="46" height="45" viewBox="0 0 46 45" fill="none" xmlns="http://www.w3.org/2000/svg">
<g filter="url(#filter0_i_11_263)">
<path d="M15.6501 34.5917L23.0001 30.1583L30.3501 34.65L28.4251 26.25L34.9001 20.65L26.3834 19.8917L23.0001 11.9583L19.6168 19.8333L11.1001 20.5917L17.5751 26.25L15.6501 34.5917ZM23.0001 35.6417L13.3168 41.475C12.889 41.7472 12.4418 41.8639 11.9751 41.825C11.5084 41.7861 11.1001 41.6306 10.7501 41.3583C10.4001 41.0861 10.1279 40.7458 9.93345 40.3375C9.73901 39.9292 9.70012 39.4722 9.81678 38.9667L12.3834 27.9417L3.80845 20.5333C3.41956 20.1833 3.17651 19.7847 3.07928 19.3375C2.98206 18.8903 3.01123 18.4528 3.16678 18.025C3.32234 17.5972 3.55567 17.2472 3.86678 16.975C4.17789 16.7028 4.60567 16.5278 5.15012 16.45L16.4668 15.4583L20.8418 5.075C21.0362 4.60833 21.3376 4.25833 21.7459 4.025C22.1543 3.79167 22.5723 3.675 23.0001 3.675C23.4279 3.675 23.8459 3.79167 24.2543 4.025C24.6626 4.25833 24.964 4.60833 25.1584 5.075L29.5334 15.4583L40.8501 16.45C41.3946 16.5278 41.8223 16.7028 42.1334 16.975C42.4446 17.2472 42.6779 17.5972 42.8334 18.025C42.989 18.4528 43.0182 18.8903 42.9209 19.3375C42.8237 19.7847 42.5807 20.1833 42.1918 20.5333L33.6168 27.9417L36.1834 38.9667C36.3001 39.4722 36.2612 39.9292 36.0668 40.3375C35.8723 40.7458 35.6001 41.0861 35.2501 41.3583C34.9001 41.6306 34.4918 41.7861 34.0251 41.825C33.5584 41.8639 33.1112 41.7472 32.6834 41.475L23.0001 35.6417Z" fill="url(#paint0_linear_11_263)"/>
</g>
<path d="M23.7823 28.8784C23.3048 28.5866 22.7046 28.5849 22.2254 28.8739L17.9081 31.478L19.0367 26.5873C19.1611 26.0483 18.9787 25.4845 18.5622 25.1205L14.7328 21.7741L19.7498 21.3274C20.2991 21.2785 20.7773 20.9321 20.995 20.4254L22.995 15.7701L25.0037 20.4801C25.2206 20.9887 25.6997 21.3367 26.2504 21.3858L31.2424 21.8302L27.4439 25.1155C27.024 25.4786 26.839 26.044 26.963 26.5851L28.0922 31.5122L23.7823 28.8784ZM9.8292 42.5424L10.7501 41.3583L9.82921 42.5424C10.4221 43.0035 11.111 43.2582 11.8505 43.3198C12.6646 43.3876 13.429 43.1769 14.1048 42.7514L23.0001 37.3928L31.8953 42.7514C32.5711 43.1768 33.3356 43.3877 34.1497 43.3198C34.8892 43.2582 35.5782 43.0035 36.171 42.5424C36.7093 42.1237 37.1282 41.5974 37.4211 40.9824C37.7822 40.224 37.8261 39.414 37.645 38.6294L37.6444 38.6266L35.2832 28.4842L43.1724 21.6684C43.1753 21.6659 43.1782 21.6634 43.1811 21.6608C43.1858 21.6567 43.1905 21.6525 43.1952 21.6483C43.7831 21.1192 44.2134 20.4535 44.3867 19.6561C44.5438 18.9337 44.4961 18.2079 44.2431 17.5124C44.0101 16.8715 43.6414 16.3013 43.1212 15.8461C42.5302 15.329 41.8013 15.0707 41.0622 14.9651C41.0353 14.9612 41.0082 14.9581 40.9811 14.9557L30.5648 14.043L26.5431 4.49808C26.5426 4.49702 26.5422 4.49596 26.5417 4.49491C26.2299 3.74819 25.7157 3.13249 24.9985 2.72263C24.3866 2.373 23.7143 2.175 23.0001 2.175C22.2859 2.175 21.6136 2.373 21.0017 2.72263C20.2845 3.13248 19.7704 3.74816 19.4585 4.49485C19.4581 4.49593 19.4576 4.497 19.4572 4.49808L15.4354 14.043L5.01918 14.9557C4.99203 14.9581 4.96496 14.9612 4.93798 14.9651C4.19893 15.0707 3.47006 15.329 2.87903 15.8461C2.35881 16.3013 1.99015 16.8715 1.75709 17.5124C1.50417 18.2079 1.45647 18.9337 1.61352 19.6561C1.78685 20.4535 2.2171 21.1192 2.805 21.6483C2.81254 21.6551 2.82015 21.6618 2.82782 21.6684L10.717 28.4842L8.35585 38.6266L8.3552 38.6294C8.17412 39.414 8.21803 40.224 8.57916 40.9824C8.87201 41.5974 9.29093 42.1237 9.8292 42.5424Z" stroke="url(#paint1_linear_11_263)" stroke-width="3" stroke-linejoin="round"/>
<defs>
<filter id="filter0_i_11_263" x="0.0231934" y="0.674999" width="45.9539" height="48.1574" filterUnits="userSpaceOnUse" color-interpolation-filters="sRGB">
<feFlood flood-opacity="0" result="BackgroundImageFix"/>
<feBlend mode="normal" in="SourceGraphic" in2="BackgroundImageFix" result="shape"/>
<feColorMatrix in="SourceAlpha" type="matrix" values="0 0 0 0 0 0 0 0 0 0 0 0 0 0 0 0 0 0 127 0" result="hardAlpha"/>
<feOffset dy="4"/>
<feGaussianBlur stdDeviation="2"/>
<feComposite in2="hardAlpha" operator="arithmetic" k2="-1" k3="1"/>
<feColorMatrix type="matrix" values="0 0 0 0 0.970833 0 0 0 0 0.546094 0 0 0 0 0.800937 0 0 0 0.2 0"/>
<feBlend mode="normal" in2="shape" result="effect1_innerShadow_11_263"/>
</filter>
<linearGradient id="paint0_linear_11_263" x1="23.0001" y1="3.675" x2="23.0001" y2="41.8323" gradientUnits="userSpaceOnUse">
<stop stop-color="#F72046"/>
<stop offset="1" stop-color="#FF007A"/>
</linearGradient>
<linearGradient id="paint1_linear_11_263" x1="23.0001" y1="3.675" x2="23.0001" y2="41.8323" gradientUnits="userSpaceOnUse">
<stop stop-color="#F7206D" stop-opacity="0.51"/>
<stop offset="1" stop-color="#FF007A" stop-opacity="0.06"/>
</linearGradient>
</defs>
</svg>
