<svg width="30" height="28" viewBox="0 0 30 28" fill="none" xmlns="http://www.w3.org/2000/svg">
<path d="M9.74994 22.7083L14.9999 19.5417L20.2499 22.75L18.8749 16.75L23.4999 12.75L17.4166 12.2083L14.9999 6.54167L12.5833 12.1667L6.49994 12.7083L11.1249 16.75L9.74994 22.7083ZM14.9999 23.4583L8.08328 27.625C7.77772 27.8194 7.45828 27.9028 7.12494 27.875C6.79161 27.8472 6.49994 27.7361 6.24994 27.5417C5.99994 27.3472 5.8055 27.1042 5.66661 26.8125C5.52772 26.5208 5.49994 26.1944 5.58328 25.8333L7.41661 17.9583L1.29161 12.6667C1.01383 12.4167 0.840221 12.1319 0.770777 11.8125C0.701333 11.4931 0.722166 11.1806 0.833277 10.875C0.944388 10.5694 1.11105 10.3194 1.33328 10.125C1.5555 9.93056 1.86105 9.80556 2.24994 9.75L10.3333 9.04167L13.4583 1.625C13.5972 1.29167 13.8124 1.04167 14.1041 0.875C14.3958 0.708333 14.6944 0.625 14.9999 0.625C15.3055 0.625 15.6041 0.708333 15.8958 0.875C16.1874 1.04167 16.4027 1.29167 16.5416 1.625L19.6666 9.04167L27.7499 9.75C28.1388 9.80556 28.4444 9.93056 28.6666 10.125C28.8888 10.3194 29.0555 10.5694 29.1666 10.875C29.2777 11.1806 29.2986 11.4931 29.2291 11.8125C29.1597 12.1319 28.9861 12.4167 28.7083 12.6667L22.5833 17.9583L24.4166 25.8333C24.4999 26.1944 24.4722 26.5208 24.3333 26.8125C24.1944 27.1042 23.9999 27.3472 23.7499 27.5417C23.4999 27.7361 23.2083 27.8472 22.8749 27.875C22.5416 27.9028 22.2222 27.8194 21.9166 27.625L14.9999 23.4583Z" fill="white"/>
</svg>
