<svg width="40" height="40" viewBox="0 0 40 40" fill="none" xmlns="http://www.w3.org/2000/svg">
<path d="M6.33333 33.6667C5.41667 33.6667 4.63194 33.3403 3.97917 32.6875C3.32639 32.0347 3 31.25 3 30.3333V24.7083C3 24.4028 3.09722 24.1389 3.29167 23.9167C3.48611 23.6944 3.73611 23.5556 4.04167 23.5C4.70833 23.2778 5.25694 22.875 5.6875 22.2917C6.11806 21.7083 6.33333 21.0556 6.33333 20.3333C6.33333 19.6111 6.11806 18.9583 5.6875 18.375C5.25694 17.7917 4.70833 17.3889 4.04167 17.1667C3.73611 17.1111 3.48611 16.9722 3.29167 16.75C3.09722 16.5278 3 16.2639 3 15.9583V10.3333C3 9.41667 3.32639 8.63194 3.97917 7.97917C4.63194 7.32639 5.41667 7 6.33333 7H33C33.9167 7 34.7014 7.32639 35.3542 7.97917C36.0069 8.63194 36.3333 9.41667 36.3333 10.3333V15.9583C36.3333 16.2639 36.2361 16.5278 36.0417 16.75C35.8472 16.9722 35.5972 17.1111 35.2917 17.1667C34.625 17.3889 34.0764 17.7917 33.6458 18.375C33.2153 18.9583 33 19.6111 33 20.3333C33 21.0556 33.2153 21.7083 33.6458 22.2917C34.0764 22.875 34.625 23.2778 35.2917 23.5C35.5972 23.5556 35.8472 23.6944 36.0417 23.9167C36.2361 24.1389 36.3333 24.4028 36.3333 24.7083V30.3333C36.3333 31.25 36.0069 32.0347 35.3542 32.6875C34.7014 33.3403 33.9167 33.6667 33 33.6667H6.33333ZM6.33333 30.3333H33V26.0833C31.9722 25.4722 31.1597 24.6597 30.5625 23.6458C29.9653 22.6319 29.6667 21.5278 29.6667 20.3333C29.6667 19.1389 29.9653 18.0347 30.5625 17.0208C31.1597 16.0069 31.9722 15.1944 33 14.5833V10.3333H6.33333V14.5833C7.36111 15.1944 8.17361 16.0069 8.77083 17.0208C9.36806 18.0347 9.66667 19.1389 9.66667 20.3333C9.66667 21.5278 9.36806 22.6319 8.77083 23.6458C8.17361 24.6597 7.36111 25.4722 6.33333 26.0833V30.3333ZM19.6667 28.6667C20.1389 28.6667 20.5347 28.5069 20.8542 28.1875C21.1736 27.8681 21.3333 27.4722 21.3333 27C21.3333 26.5278 21.1736 26.1319 20.8542 25.8125C20.5347 25.4931 20.1389 25.3333 19.6667 25.3333C19.1944 25.3333 18.7986 25.4931 18.4792 25.8125C18.1597 26.1319 18 26.5278 18 27C18 27.4722 18.1597 27.8681 18.4792 28.1875C18.7986 28.5069 19.1944 28.6667 19.6667 28.6667ZM19.6667 22C20.1389 22 20.5347 21.8403 20.8542 21.5208C21.1736 21.2014 21.3333 20.8056 21.3333 20.3333C21.3333 19.8611 21.1736 19.4653 20.8542 19.1458C20.5347 18.8264 20.1389 18.6667 19.6667 18.6667C19.1944 18.6667 18.7986 18.8264 18.4792 19.1458C18.1597 19.4653 18 19.8611 18 20.3333C18 20.8056 18.1597 21.2014 18.4792 21.5208C18.7986 21.8403 19.1944 22 19.6667 22ZM19.6667 15.3333C20.1389 15.3333 20.5347 15.1736 20.8542 14.8542C21.1736 14.5347 21.3333 14.1389 21.3333 13.6667C21.3333 13.1944 21.1736 12.7986 20.8542 12.4792C20.5347 12.1597 20.1389 12 19.6667 12C19.1944 12 18.7986 12.1597 18.4792 12.4792C18.1597 12.7986 18 13.1944 18 13.6667C18 14.1389 18.1597 14.5347 18.4792 14.8542C18.7986 15.1736 19.1944 15.3333 19.6667 15.3333Z" fill="white"/>
</svg>
