<svg width="46" height="46" viewBox="0 0 46 46" fill="none" xmlns="http://www.w3.org/2000/svg">
<g filter="url(#filter0_i_11_221)">
<path d="M7.28328 38.7167C6.22912 38.7167 5.32669 38.3413 4.57599 37.5906C3.8253 36.8399 3.44995 35.9375 3.44995 34.8833V28.4146C3.44995 28.0632 3.56176 27.7597 3.78537 27.5042C4.00898 27.2486 4.29648 27.0889 4.64787 27.025C5.41453 26.7694 6.04544 26.3063 6.54058 25.6354C7.03571 24.9646 7.28328 24.2139 7.28328 23.3833C7.28328 22.5528 7.03571 21.8021 6.54058 21.1313C6.04544 20.4604 5.41453 19.9972 4.64787 19.7417C4.29648 19.6778 4.00898 19.5181 3.78537 19.2625C3.56176 19.0069 3.44995 18.7035 3.44995 18.3521V11.8833C3.44995 10.8292 3.8253 9.92674 4.57599 9.17604C5.32669 8.42535 6.22912 8.05 7.28328 8.05H37.95C39.0041 8.05 39.9065 8.42535 40.6572 9.17604C41.4079 9.92674 41.7833 10.8292 41.7833 11.8833V18.3521C41.7833 18.7035 41.6715 19.0069 41.4479 19.2625C41.2243 19.5181 40.9368 19.6778 40.5854 19.7417C39.8187 19.9972 39.1878 20.4604 38.6927 21.1313C38.1975 21.8021 37.95 22.5528 37.95 23.3833C37.95 24.2139 38.1975 24.9646 38.6927 25.6354C39.1878 26.3063 39.8187 26.7694 40.5854 27.025C40.9368 27.0889 41.2243 27.2486 41.4479 27.5042C41.6715 27.7597 41.7833 28.0632 41.7833 28.4146V34.8833C41.7833 35.9375 41.4079 36.8399 40.6572 37.5906C39.9065 38.3413 39.0041 38.7167 37.95 38.7167H7.28328ZM7.28328 34.8833H37.95V29.9958C36.768 29.2931 35.8336 28.3587 35.1468 27.1927C34.46 26.0267 34.1166 24.7569 34.1166 23.3833C34.1166 22.0097 34.46 20.7399 35.1468 19.574C35.8336 18.408 36.768 17.4736 37.95 16.7708V11.8833H7.28328V16.7708C8.46523 17.4736 9.3996 18.408 10.0864 19.574C10.7732 20.7399 11.1166 22.0097 11.1166 23.3833C11.1166 24.7569 10.7732 26.0267 10.0864 27.1927C9.3996 28.3587 8.46523 29.2931 7.28328 29.9958V34.8833ZM22.6166 32.9667C23.1597 32.9667 23.6149 32.783 23.9822 32.4156C24.3496 32.0483 24.5333 31.5931 24.5333 31.05C24.5333 30.5069 24.3496 30.0517 23.9822 29.6844C23.6149 29.317 23.1597 29.1333 22.6166 29.1333C22.0736 29.1333 21.6184 29.317 21.251 29.6844C20.8836 30.0517 20.7 30.5069 20.7 31.05C20.7 31.5931 20.8836 32.0483 21.251 32.4156C21.6184 32.783 22.0736 32.9667 22.6166 32.9667ZM22.6166 25.3C23.1597 25.3 23.6149 25.1163 23.9822 24.749C24.3496 24.3816 24.5333 23.9264 24.5333 23.3833C24.5333 22.8403 24.3496 22.3851 23.9822 22.0177C23.6149 21.6503 23.1597 21.4667 22.6166 21.4667C22.0736 21.4667 21.6184 21.6503 21.251 22.0177C20.8836 22.3851 20.7 22.8403 20.7 23.3833C20.7 23.9264 20.8836 24.3816 21.251 24.749C21.6184 25.1163 22.0736 25.3 22.6166 25.3ZM22.6166 17.6333C23.1597 17.6333 23.6149 17.4497 23.9822 17.0823C24.3496 16.7149 24.5333 16.2597 24.5333 15.7167C24.5333 15.1736 24.3496 14.7184 23.9822 14.351C23.6149 13.9837 23.1597 13.8 22.6166 13.8C22.0736 13.8 21.6184 13.9837 21.251 14.351C20.8836 14.7184 20.7 15.1736 20.7 15.7167C20.7 16.2597 20.8836 16.7149 21.251 17.0823C21.6184 17.4497 22.0736 17.6333 22.6166 17.6333Z" fill="url(#paint0_linear_11_221)"/>
</g>
<path d="M42.5767 20.2503L41.4479 19.2625L42.5767 20.2503C43.0486 19.711 43.2833 19.053 43.2833 18.3521V11.8833C43.2833 10.4282 42.7477 9.14514 41.7179 8.11538C40.6881 7.08563 39.4051 6.55 37.95 6.55H7.28328C5.82813 6.55 4.54509 7.08563 3.51533 8.11538C2.48558 9.14514 1.94995 10.4282 1.94995 11.8833V18.3521C1.94995 19.053 2.18467 19.711 2.6565 20.2503C3.08515 20.7401 3.63422 21.0527 4.24765 21.1907C4.67783 21.349 5.03299 21.6146 5.33371 22.022C5.63925 22.436 5.78328 22.8747 5.78328 23.3833C5.78328 23.8919 5.63925 24.3307 5.33371 24.7446C5.03299 25.1521 4.67783 25.4177 4.24764 25.576C3.63422 25.714 3.08515 26.0265 2.6565 26.5164C2.18467 27.0556 1.94995 27.7137 1.94995 28.4146V34.8833C1.94995 36.3385 2.48558 37.6215 3.51533 38.6513C4.54509 39.681 5.82813 40.2167 7.28328 40.2167H37.95C39.4051 40.2167 40.6881 39.681 41.7179 38.6513C42.7477 37.6215 43.2833 36.3385 43.2833 34.8833V28.4146C43.2833 27.7137 43.0486 27.0556 42.5767 26.5164L41.4479 27.5042L42.5767 26.5164C42.1481 26.0265 41.599 25.714 40.9856 25.576C40.5554 25.4177 40.2002 25.1521 39.8995 24.7446C39.594 24.3307 39.45 23.8919 39.45 23.3833C39.45 22.8747 39.594 22.436 39.8995 22.022C40.2002 21.6146 40.5554 21.349 40.9856 21.1907C41.599 21.0527 42.1481 20.7401 42.5767 20.2503ZM36.45 30.8044V33.3833H25.1326C25.735 32.7357 26.0333 31.9283 26.0333 31.05C26.0333 30.1292 25.7055 29.2863 25.0429 28.6237C24.3804 27.9612 23.5374 27.6333 22.6166 27.6333C21.6958 27.6333 20.8529 27.9612 20.1903 28.6237C19.5278 29.2863 19.2 30.1292 19.2 31.05C19.2 31.9283 19.4982 32.7357 20.1007 33.3833H8.78328V30.8044C9.84133 30.0412 10.7104 29.0888 11.3789 27.954C12.2037 26.5537 12.6166 25.0204 12.6166 23.3833C12.6166 21.7462 12.2037 20.213 11.3789 18.8127C10.7104 17.6778 9.84133 16.7255 8.78328 15.9623V13.3833H20.1007C19.4982 14.031 19.2 14.8384 19.2 15.7167C19.2 16.6375 19.5278 17.4804 20.1903 18.143C20.8529 18.8055 21.6958 19.1333 22.6166 19.1333C23.5374 19.1333 24.3804 18.8055 25.0429 18.143C25.7055 17.4804 26.0333 16.6375 26.0333 15.7167C26.0333 14.8384 25.735 14.031 25.1326 13.3833H36.45V15.9623C35.3919 16.7255 34.5228 17.6778 33.8544 18.8127C33.0295 20.213 32.6166 21.7462 32.6166 23.3833C32.6166 25.0204 33.0295 26.5537 33.8544 27.954C34.5228 29.0888 35.3919 30.0412 36.45 30.8044ZM22.6166 26.8C23.5374 26.8 24.3804 26.4722 25.0429 25.8096C25.7055 25.1471 26.0333 24.3041 26.0333 23.3833C26.0333 22.4625 25.7055 21.6196 25.0429 20.957C24.3804 20.2945 23.5374 19.9667 22.6166 19.9667C21.6958 19.9667 20.8529 20.2945 20.1903 20.957C19.5278 21.6196 19.2 22.4625 19.2 23.3833C19.2 24.3041 19.5278 25.1471 20.1903 25.8096C20.8529 26.4722 21.6958 26.8 22.6166 26.8Z" stroke="url(#paint1_linear_11_221)" stroke-width="3" stroke-linejoin="round"/>
<defs>
<filter id="filter0_i_11_221" x="0.449951" y="5.05" width="44.3333" height="40.6667" filterUnits="userSpaceOnUse" color-interpolation-filters="sRGB">
<feFlood flood-opacity="0" result="BackgroundImageFix"/>
<feBlend mode="normal" in="SourceGraphic" in2="BackgroundImageFix" result="shape"/>
<feColorMatrix in="SourceAlpha" type="matrix" values="0 0 0 0 0 0 0 0 0 0 0 0 0 0 0 0 0 0 127 0" result="hardAlpha"/>
<feOffset dy="4"/>
<feGaussianBlur stdDeviation="2"/>
<feComposite in2="hardAlpha" operator="arithmetic" k2="-1" k3="1"/>
<feColorMatrix type="matrix" values="0 0 0 0 0.970833 0 0 0 0 0.546094 0 0 0 0 0.800937 0 0 0 0.2 0"/>
<feBlend mode="normal" in2="shape" result="effect1_innerShadow_11_221"/>
</filter>
<linearGradient id="paint0_linear_11_221" x1="22.6166" y1="8.05" x2="22.6166" y2="38.7167" gradientUnits="userSpaceOnUse">
<stop stop-color="#F72046"/>
<stop offset="1" stop-color="#FF007A"/>
</linearGradient>
<linearGradient id="paint1_linear_11_221" x1="22.6166" y1="8.05" x2="22.6166" y2="38.7167" gradientUnits="userSpaceOnUse">
<stop stop-color="#F7206D" stop-opacity="0.51"/>
<stop offset="1" stop-color="#FF007A" stop-opacity="0.06"/>
</linearGradient>
</defs>
</svg>
