<svg width="40" height="40" viewBox="0 0 40 40" fill="none" xmlns="http://www.w3.org/2000/svg">
<path d="M10.0833 29.625C9.5277 29.3195 9.09714 28.9097 8.79159 28.3958C8.48603 27.882 8.33325 27.3056 8.33325 26.6667V18.6667L4.33325 16.4583C4.0277 16.2917 3.80547 16.0833 3.66659 15.8333C3.5277 15.5833 3.45825 15.3056 3.45825 15C3.45825 14.6945 3.5277 14.4167 3.66659 14.1667C3.80547 13.9167 4.0277 13.7083 4.33325 13.5417L18.4166 5.87501C18.6666 5.73612 18.9235 5.63195 19.1874 5.56251C19.4513 5.49307 19.7221 5.45834 19.9999 5.45834C20.2777 5.45834 20.5485 5.49307 20.8124 5.56251C21.0763 5.63195 21.3333 5.73612 21.5833 5.87501L37.4583 14.5417C37.736 14.6806 37.9513 14.882 38.1041 15.1458C38.2569 15.4097 38.3333 15.6945 38.3333 16V26.6667C38.3333 27.1389 38.1735 27.5347 37.8541 27.8542C37.5346 28.1736 37.1388 28.3333 36.6666 28.3333C36.1944 28.3333 35.7985 28.1736 35.4791 27.8542C35.1596 27.5347 34.9999 27.1389 34.9999 26.6667V16.8333L31.6666 18.6667V26.6667C31.6666 27.3056 31.5138 27.882 31.2083 28.3958C30.9027 28.9097 30.4721 29.3195 29.9166 29.625L21.5833 34.125C21.3333 34.2639 21.0763 34.3681 20.8124 34.4375C20.5485 34.507 20.2777 34.5417 19.9999 34.5417C19.7221 34.5417 19.4513 34.507 19.1874 34.4375C18.9235 34.3681 18.6666 34.2639 18.4166 34.125L10.0833 29.625ZM19.9999 21.1667L31.4166 15L19.9999 8.83334L8.58325 15L19.9999 21.1667ZM19.9999 31.2083L28.3333 26.7083V20.4167L21.6249 24.125C21.3749 24.2639 21.111 24.3681 20.8333 24.4375C20.5555 24.507 20.2777 24.5417 19.9999 24.5417C19.7221 24.5417 19.4444 24.507 19.1666 24.4375C18.8888 24.3681 18.6249 24.2639 18.3749 24.125L11.6666 20.4167V26.7083L19.9999 31.2083Z" fill="white"/>
</svg>
