<svg width="56" height="56" viewBox="0 0 56 56" fill="none" xmlns="http://www.w3.org/2000/svg">
<g clip-path="url(#clip0_11_249)">
<g filter="url(#filter0_i_11_249)">
<path d="M14.1166 41.475C13.3388 41.0472 12.736 40.4736 12.3082 39.7542C11.8804 39.0347 11.6666 38.2278 11.6666 37.3333V26.1333L6.06655 23.0417C5.63877 22.8083 5.32766 22.5167 5.13322 22.1667C4.93877 21.8167 4.84155 21.4278 4.84155 21C4.84155 20.5722 4.93877 20.1833 5.13322 19.8333C5.32766 19.4833 5.63877 19.1917 6.06655 18.9583L25.7832 8.225C26.1332 8.03055 26.4929 7.88472 26.8624 7.7875C27.2318 7.69027 27.611 7.64166 27.9999 7.64166C28.3888 7.64166 28.7679 7.69027 29.1374 7.7875C29.5068 7.88472 29.8666 8.03055 30.2166 8.225L52.4416 20.3583C52.8304 20.5528 53.1318 20.8347 53.3457 21.2042C53.5596 21.5736 53.6666 21.9722 53.6666 22.4V37.3333C53.6666 37.9944 53.4429 38.5486 52.9957 38.9958C52.5485 39.4431 51.9943 39.6667 51.3332 39.6667C50.6721 39.6667 50.1179 39.4431 49.6707 38.9958C49.2235 38.5486 48.9999 37.9944 48.9999 37.3333V23.5667L44.3332 26.1333V37.3333C44.3332 38.2278 44.1193 39.0347 43.6916 39.7542C43.2638 40.4736 42.661 41.0472 41.8832 41.475L30.2166 47.775C29.8666 47.9694 29.5068 48.1153 29.1374 48.2125C28.7679 48.3097 28.3888 48.3583 27.9999 48.3583C27.611 48.3583 27.2318 48.3097 26.8624 48.2125C26.4929 48.1153 26.1332 47.9694 25.7832 47.775L14.1166 41.475ZM27.9999 29.6333L43.9832 21L27.9999 12.3667L12.0166 21L27.9999 29.6333ZM27.9999 43.6917L39.6666 37.3917V28.5833L30.2749 33.775C29.9249 33.9694 29.5554 34.1153 29.1666 34.2125C28.7777 34.3097 28.3888 34.3583 27.9999 34.3583C27.611 34.3583 27.2221 34.3097 26.8332 34.2125C26.4443 34.1153 26.0749 33.9694 25.7249 33.775L16.3332 28.5833V37.3917L27.9999 43.6917Z" fill="url(#paint0_linear_11_249)"/>
</g>
<path d="M13.3937 42.7893L13.3937 42.7894L13.4038 42.7949L25.0631 49.0909C25.5147 49.3409 25.9876 49.5334 26.4806 49.6631C26.9769 49.7937 27.4845 49.8583 27.9999 49.8583C28.5153 49.8583 29.0228 49.7937 29.5191 49.6631C30.0121 49.5334 30.485 49.3409 30.9365 49.0909L42.5959 42.7949L42.596 42.7949L42.6061 42.7893C43.6034 42.2408 44.4081 41.484 44.9809 40.5208C45.556 39.5534 45.8332 38.4784 45.8332 37.3333V27.0202L47.4999 26.1036V37.3333C47.4999 38.3722 47.8676 39.3141 48.6101 40.0565C49.3525 40.7989 50.2944 41.1667 51.3332 41.1667C52.3721 41.1667 53.314 40.7989 54.0564 40.0565C54.7988 39.3141 55.1666 38.3722 55.1666 37.3333V22.4C55.1666 21.7089 54.9903 21.0509 54.6439 20.4526C54.2853 19.8332 53.773 19.3533 53.1394 19.0303L30.945 6.91376C30.9433 6.9128 30.9416 6.91184 30.9398 6.91088C30.4873 6.66003 30.0133 6.46693 29.5191 6.33688C29.0228 6.20628 28.5153 6.14166 27.9999 6.14166C27.4845 6.14166 26.9769 6.20628 26.4806 6.33688C25.9868 6.46684 25.513 6.65978 25.0608 6.9104L5.34937 17.6409L5.34827 17.6415C4.72551 17.9812 4.18166 18.4574 3.82198 19.1049C3.49528 19.6929 3.34155 20.3353 3.34155 21C3.34155 21.6647 3.49528 22.3071 3.82198 22.8951C4.18096 23.5413 4.72338 24.0169 5.3446 24.3565C5.34583 24.3572 5.34705 24.3578 5.34828 24.3585L10.1666 27.0186V37.3333C10.1666 38.4784 10.4437 39.5534 11.0189 40.5208C11.5917 41.484 12.3964 42.2408 13.3937 42.7893ZM27.9999 14.0715L40.827 21L27.9999 27.9285L15.1728 21L27.9999 14.0715ZM38.1666 36.4969L27.9999 41.9869L17.8332 36.4969V31.1265L24.9964 35.0862C24.9969 35.0865 24.9973 35.0867 24.9977 35.087C25.4622 35.3449 25.9538 35.5388 26.4694 35.6677C26.9736 35.7938 27.4846 35.8583 27.9999 35.8583C28.5151 35.8583 29.0262 35.7938 29.5304 35.6677C30.0459 35.5388 30.5376 35.3449 31.002 35.087C31.0025 35.0867 31.0029 35.0865 31.0034 35.0862L38.1666 31.1265V36.4969Z" stroke="url(#paint1_linear_11_249)" stroke-width="3" stroke-linejoin="round"/>
</g>
<defs>
<filter id="filter0_i_11_249" x="1.84155" y="4.64166" width="54.825" height="50.7167" filterUnits="userSpaceOnUse" color-interpolation-filters="sRGB">
<feFlood flood-opacity="0" result="BackgroundImageFix"/>
<feBlend mode="normal" in="SourceGraphic" in2="BackgroundImageFix" result="shape"/>
<feColorMatrix in="SourceAlpha" type="matrix" values="0 0 0 0 0 0 0 0 0 0 0 0 0 0 0 0 0 0 127 0" result="hardAlpha"/>
<feOffset dy="4"/>
<feGaussianBlur stdDeviation="2"/>
<feComposite in2="hardAlpha" operator="arithmetic" k2="-1" k3="1"/>
<feColorMatrix type="matrix" values="0 0 0 0 0.970833 0 0 0 0 0.546094 0 0 0 0 0.800937 0 0 0 0.2 0"/>
<feBlend mode="normal" in2="shape" result="effect1_innerShadow_11_249"/>
</filter>
<linearGradient id="paint0_linear_11_249" x1="29.2541" y1="7.64166" x2="29.2541" y2="48.3583" gradientUnits="userSpaceOnUse">
<stop stop-color="#F72046"/>
<stop offset="1" stop-color="#FF007A"/>
</linearGradient>
<linearGradient id="paint1_linear_11_249" x1="29.2541" y1="7.64166" x2="29.2541" y2="48.3583" gradientUnits="userSpaceOnUse">
<stop stop-color="#F7206D" stop-opacity="0.51"/>
<stop offset="1" stop-color="#FF007A" stop-opacity="0.06"/>
</linearGradient>
<clipPath id="clip0_11_249">
<rect width="56" height="56" fill="white"/>
</clipPath>
</defs>
</svg>
