<svg width="56" height="56" viewBox="0 0 56 56" fill="none" xmlns="http://www.w3.org/2000/svg">
<g filter="url(#filter0_i_11_200)">
<path d="M13.9999 44.3333H20.9999V32.6667C20.9999 32.0055 21.2235 31.4514 21.6708 31.0042C22.118 30.5569 22.6721 30.3333 23.3333 30.3333H32.6666C33.3277 30.3333 33.8819 30.5569 34.3291 31.0042C34.7763 31.4514 34.9999 32.0055 34.9999 32.6667V44.3333H41.9999V23.3333L27.9999 12.8333L13.9999 23.3333V44.3333ZM9.33325 44.3333V23.3333C9.33325 22.5944 9.49853 21.8944 9.82909 21.2333C10.1596 20.5722 10.6166 20.0278 11.1999 19.6L25.1999 9.09999C26.0166 8.47777 26.9499 8.16666 27.9999 8.16666C29.0499 8.16666 29.9833 8.47777 30.7999 9.09999L44.7999 19.6C45.3833 20.0278 45.8402 20.5722 46.1708 21.2333C46.5013 21.8944 46.6666 22.5944 46.6666 23.3333V44.3333C46.6666 45.6167 46.2096 46.7153 45.2958 47.6292C44.3819 48.543 43.2833 49 41.9999 49H32.6666C32.0055 49 31.4513 48.7764 31.0041 48.3292C30.5569 47.8819 30.3333 47.3278 30.3333 46.6667V35H25.6666V46.6667C25.6666 47.3278 25.443 47.8819 24.9958 48.3292C24.5485 48.7764 23.9944 49 23.3333 49H13.9999C12.7166 49 11.618 48.543 10.7041 47.6292C9.7902 46.7153 9.33325 45.6167 9.33325 44.3333Z" fill="url(#paint0_linear_11_200)"/>
</g>
<path d="M19.4999 32.6667V42.8333H15.4999V24.0833L27.9999 14.7083L40.4999 24.0833V42.8333H36.4999V32.6667C36.4999 31.6278 36.1322 30.6859 35.3897 29.9435C34.6473 29.2011 33.7055 28.8333 32.6666 28.8333H23.3333C22.2944 28.8333 21.3525 29.2011 20.6101 29.9435C19.8677 30.6859 19.4999 31.6278 19.4999 32.6667ZM7.83325 23.3333V44.3333C7.83325 46.0176 8.45048 47.4969 9.64342 48.6898C10.8364 49.8828 12.3156 50.5 13.9999 50.5H23.3333C24.3721 50.5 25.314 50.1322 26.0564 49.3898C26.7988 48.6474 27.1666 47.7055 27.1666 46.6667V36.5H28.8333V46.6667C28.8333 47.7055 29.201 48.6474 29.9434 49.3898C30.6858 50.1322 31.6277 50.5 32.6666 50.5H41.9999C43.6842 50.5 45.1635 49.8828 46.3564 48.6898C47.5494 47.4969 48.1666 46.0176 48.1666 44.3333V23.3333C48.1666 22.3615 47.9471 21.4318 47.5124 20.5625C47.079 19.6957 46.4705 18.9667 45.694 18.3956L31.709 7.90684C31.7074 7.90561 31.7057 7.90438 31.7041 7.90315C30.621 7.07952 29.3683 6.66666 27.9999 6.66666C26.6315 6.66666 25.3788 7.07954 24.2956 7.90321L10.3059 18.3955C9.52943 18.9666 8.92088 19.6956 8.48744 20.5625C8.05278 21.4318 7.83325 22.3615 7.83325 23.3333Z" stroke="url(#paint1_linear_11_200)" stroke-width="3" stroke-linejoin="round"/>
<defs>
<filter id="filter0_i_11_200" x="6.33325" y="5.16666" width="43.3333" height="50.8333" filterUnits="userSpaceOnUse" color-interpolation-filters="sRGB">
<feFlood flood-opacity="0" result="BackgroundImageFix"/>
<feBlend mode="normal" in="SourceGraphic" in2="BackgroundImageFix" result="shape"/>
<feColorMatrix in="SourceAlpha" type="matrix" values="0 0 0 0 0 0 0 0 0 0 0 0 0 0 0 0 0 0 127 0" result="hardAlpha"/>
<feOffset dy="4"/>
<feGaussianBlur stdDeviation="2"/>
<feComposite in2="hardAlpha" operator="arithmetic" k2="-1" k3="1"/>
<feColorMatrix type="matrix" values="0 0 0 0 0.970833 0 0 0 0 0.546094 0 0 0 0 0.800937 0 0 0 0.2 0"/>
<feBlend mode="normal" in2="shape" result="effect1_innerShadow_11_200"/>
</filter>
<linearGradient id="paint0_linear_11_200" x1="27.9999" y1="8.16666" x2="27.9999" y2="49" gradientUnits="userSpaceOnUse">
<stop stop-color="#F72046"/>
<stop offset="1" stop-color="#FF007A"/>
</linearGradient>
<linearGradient id="paint1_linear_11_200" x1="27.9999" y1="8.16666" x2="27.9999" y2="49" gradientUnits="userSpaceOnUse">
<stop stop-color="#F7206D" stop-opacity="0.51"/>
<stop offset="1" stop-color="#FF007A" stop-opacity="0.06"/>
</linearGradient>
</defs>
</svg>
