<svg width="35" height="35" viewBox="0 0 35 35" fill="none" xmlns="http://www.w3.org/2000/svg">
<path d="M7.29159 27.7083C6.87839 27.7083 6.53204 27.5686 6.25252 27.2891C5.97301 27.0096 5.83325 26.6632 5.83325 26.25C5.83325 25.8368 5.97301 25.4905 6.25252 25.2109C6.53204 24.9314 6.87839 24.7917 7.29159 24.7917H8.74992V14.5833C8.74992 12.566 9.35756 10.7734 10.5728 9.20573C11.7881 7.63803 13.368 6.61112 15.3124 6.12501V5.10417C15.3124 4.49653 15.5251 3.98004 15.9504 3.55469C16.3758 3.12935 16.8923 2.91667 17.4999 2.91667C18.1076 2.91667 18.6241 3.12935 19.0494 3.55469C19.4747 3.98004 19.6874 4.49653 19.6874 5.10417V6.12501C21.6319 6.61112 23.2117 7.63803 24.427 9.20573C25.6423 10.7734 26.2499 12.566 26.2499 14.5833V24.7917H27.7083C28.1214 24.7917 28.4678 24.9314 28.7473 25.2109C29.0268 25.4905 29.1666 25.8368 29.1666 26.25C29.1666 26.6632 29.0268 27.0096 28.7473 27.2891C28.4678 27.5686 28.1214 27.7083 27.7083 27.7083H7.29159ZM17.4999 32.0833C16.6978 32.0833 16.0112 31.7977 15.44 31.2266C14.8688 30.6554 14.5833 29.9688 14.5833 29.1667H20.4166C20.4166 29.9688 20.131 30.6554 19.5598 31.2266C18.9886 31.7977 18.302 32.0833 17.4999 32.0833ZM11.6666 24.7917H23.3333V14.5833C23.3333 12.9792 22.7621 11.6059 21.6197 10.4635C20.4773 9.32119 19.1041 8.75 17.4999 8.75C15.8958 8.75 14.5225 9.32119 13.3801 10.4635C12.2378 11.6059 11.6666 12.9792 11.6666 14.5833V24.7917Z" fill="white"/>
</svg>
