<svg width="20" height="20" viewBox="0 0 20 20" fill="none" xmlns="http://www.w3.org/2000/svg">
<path d="M7.48776 14.6191C5.49464 14.6191 3.8078 13.9479 2.42725 12.6054C1.04669 11.263 0.356415 9.62269 0.356415 7.68457C0.356415 5.74644 1.04669 4.10615 2.42725 2.76369C3.8078 1.42123 5.49464 0.75 7.48776 0.75C9.48087 0.75 11.1677 1.42123 12.5483 2.76369C13.9288 4.10615 14.6191 5.74644 14.6191 7.68457C14.6191 8.46693 14.4911 9.20484 14.2351 9.89829C13.9791 10.5917 13.6317 11.2052 13.1928 11.7386L19.3368 17.713C19.5379 17.9086 19.6385 18.1575 19.6385 18.4598C19.6385 18.7621 19.5379 19.011 19.3368 19.2066C19.1356 19.4022 18.8796 19.5 18.5688 19.5C18.2579 19.5 18.0019 19.4022 17.8008 19.2066L11.6568 13.2322C11.1083 13.659 10.4774 13.9968 9.7643 14.2457C9.05116 14.4947 8.29232 14.6191 7.48776 14.6191ZM7.48776 12.4854C8.85917 12.4854 10.0249 12.0187 10.9849 11.0852C11.9448 10.1517 12.4248 9.01814 12.4248 7.68457C12.4248 6.351 11.9448 5.21746 10.9849 4.28396C10.0249 3.35046 8.85917 2.88371 7.48776 2.88371C6.11634 2.88371 4.95064 3.35046 3.99066 4.28396C3.03067 5.21746 2.55067 6.351 2.55067 7.68457C2.55067 9.01814 3.03067 10.1517 3.99066 11.0852C4.95064 12.0187 6.11634 12.4854 7.48776 12.4854Z" fill="white"/>
</svg>
