<svg width="228" height="62" viewBox="0 0 228 62" fill="none" xmlns="http://www.w3.org/2000/svg">
<rect width="228" height="62" rx="29" fill="url(#paint0_linear_340_1176)"/>
<path d="M26.425 29.8625C26.8334 29.0458 27.2563 28.2583 27.6938 27.5C28.1313 26.7417 28.6125 25.9833 29.1375 25.225L26.6875 24.7438L23.0125 28.4188L26.425 29.8625ZM47.5125 17.8313C45.4709 17.8896 43.2906 18.4875 40.9719 19.625C38.6531 20.7625 36.5459 22.2792 34.65 24.175C33.425 25.4 32.3313 26.7125 31.3688 28.1125C30.4063 29.5125 29.6917 30.825 29.225 32.05L34.2125 36.9938C35.4375 36.5271 36.75 35.8125 38.15 34.85C39.55 33.8875 40.8625 32.7938 42.0875 31.5688C43.9834 29.6729 45.5 27.5729 46.6375 25.2688C47.775 22.9646 48.3729 20.7917 48.4313 18.75C48.4313 18.6333 48.4094 18.5167 48.3656 18.4C48.3219 18.2833 48.2563 18.1813 48.1688 18.0938C48.0813 18.0063 47.9792 17.9406 47.8625 17.8969C47.7459 17.8531 47.6292 17.8313 47.5125 17.8313ZM37.8875 28.3313C37.2167 27.6604 36.8813 26.8365 36.8813 25.8594C36.8813 24.8823 37.2167 24.0583 37.8875 23.3875C38.5584 22.7167 39.3896 22.3813 40.3813 22.3813C41.3729 22.3813 42.2042 22.7167 42.875 23.3875C43.5459 24.0583 43.8813 24.8823 43.8813 25.8594C43.8813 26.8365 43.5459 27.6604 42.875 28.3313C42.2042 29.0021 41.3729 29.3375 40.3813 29.3375C39.3896 29.3375 38.5584 29.0021 37.8875 28.3313ZM36.4 39.7938L37.8438 43.25L41.5188 39.575L41.0375 37.125C40.2792 37.65 39.5209 38.124 38.7625 38.5469C38.0042 38.9698 37.2167 39.3854 36.4 39.7938ZM51.7563 16.4313C51.9896 19.6396 51.4646 22.7677 50.1813 25.8156C48.8979 28.8635 46.8709 31.7729 44.1 34.5438L44.975 38.875C45.0917 39.4583 45.0625 40.0271 44.8875 40.5813C44.7125 41.1354 44.4209 41.6167 44.0125 42.025L38.5 47.5375C38.0625 47.975 37.5375 48.1427 36.925 48.0406C36.3125 47.9385 35.8896 47.5958 35.6563 47.0125L32.9875 40.7563L25.5063 33.275L19.25 30.6063C18.6667 30.3729 18.3167 29.95 18.2 29.3375C18.0834 28.725 18.2438 28.2 18.6813 27.7625L24.1938 22.25C24.6021 21.8417 25.0906 21.55 25.6594 21.375C26.2281 21.2 26.8042 21.1708 27.3875 21.2875L31.7188 22.1625C34.4896 19.3917 37.399 17.3646 40.4469 16.0813C43.4948 14.7979 46.6229 14.2729 49.8313 14.5063C50.0646 14.5354 50.2979 14.601 50.5313 14.7031C50.7646 14.8052 50.9688 14.9438 51.1438 15.1188C51.3188 15.2938 51.4573 15.4979 51.5594 15.7313C51.6615 15.9646 51.7271 16.1979 51.7563 16.4313ZM20.8688 37.9563C21.8896 36.9354 23.1365 36.4177 24.6094 36.4031C26.0823 36.3885 27.3292 36.8917 28.35 37.9125C29.3709 38.9333 29.874 40.1802 29.8594 41.6531C29.8448 43.126 29.3271 44.3729 28.3063 45.3938C26.9063 46.7938 25.2511 47.625 23.3406 47.8875C21.4302 48.15 19.5125 48.4125 17.5875 48.675C17.85 46.75 18.1125 44.8323 18.375 42.9219C18.6375 41.0115 19.4688 39.3563 20.8688 37.9563ZM23.3625 40.4063C22.8667 40.9021 22.524 41.5 22.3344 42.2C22.1448 42.9 21.9917 43.6146 21.875 44.3438C22.6042 44.2271 23.3188 44.0813 24.0188 43.9063C24.7188 43.7313 25.3167 43.3958 25.8125 42.9C26.1625 42.55 26.3521 42.1271 26.3813 41.6313C26.4104 41.1354 26.25 40.7125 25.9 40.3625C25.55 40.0125 25.1271 39.8448 24.6313 39.8594C24.1354 39.874 23.7125 40.0563 23.3625 40.4063Z" fill="white"/>
<path d="M78.2104 13.4545L81.726 24.5057H81.861L85.3837 13.4545H88.7928L83.7786 28H79.8155L74.7942 13.4545H78.2104ZM94.1852 28.2131C93.082 28.2131 92.1279 27.9787 91.323 27.5099C90.5228 27.0365 89.9049 26.3783 89.4693 25.5355C89.0337 24.688 88.8159 23.7055 88.8159 22.5881C88.8159 21.4612 89.0337 20.4763 89.4693 19.6335C89.9049 18.786 90.5228 18.1278 91.323 17.6591C92.1279 17.1856 93.082 16.9489 94.1852 16.9489C95.2884 16.9489 96.2401 17.1856 97.0403 17.6591C97.8452 18.1278 98.4655 18.786 98.9011 19.6335C99.3367 20.4763 99.5545 21.4612 99.5545 22.5881C99.5545 23.7055 99.3367 24.688 98.9011 25.5355C98.4655 26.3783 97.8452 27.0365 97.0403 27.5099C96.2401 27.9787 95.2884 28.2131 94.1852 28.2131ZM94.1994 25.8693C94.7013 25.8693 95.1203 25.7273 95.4565 25.4432C95.7927 25.1544 96.046 24.7614 96.2164 24.2642C96.3916 23.767 96.4792 23.2012 96.4792 22.5668C96.4792 21.9323 96.3916 21.3665 96.2164 20.8693C96.046 20.3722 95.7927 19.9792 95.4565 19.6903C95.1203 19.4015 94.7013 19.2571 94.1994 19.2571C93.6928 19.2571 93.2666 19.4015 92.921 19.6903C92.5801 19.9792 92.322 20.3722 92.1468 20.8693C91.9764 21.3665 91.8912 21.9323 91.8912 22.5668C91.8912 23.2012 91.9764 23.767 92.1468 24.2642C92.322 24.7614 92.5801 25.1544 92.921 25.4432C93.2666 25.7273 93.6928 25.8693 94.1994 25.8693ZM104.547 13.4545V28H101.522V13.4545H104.547ZM112.774 17.0909V19.3636H106.204V17.0909H112.774ZM107.695 14.4773H110.721V24.6477C110.721 24.9271 110.764 25.1449 110.849 25.3011C110.934 25.4527 111.052 25.5592 111.204 25.6207C111.36 25.6823 111.54 25.7131 111.744 25.7131C111.886 25.7131 112.028 25.7012 112.17 25.6776C112.312 25.6491 112.421 25.6278 112.497 25.6136L112.972 27.8651C112.821 27.9124 112.608 27.9669 112.333 28.0284C112.059 28.0947 111.725 28.1349 111.332 28.1491C110.603 28.1776 109.963 28.0805 109.414 27.858C108.87 27.6354 108.446 27.2898 108.143 26.821C107.84 26.3523 107.691 25.7604 107.695 25.0455V14.4773ZM117.855 28.206C117.159 28.206 116.539 28.0852 115.994 27.8438C115.45 27.5975 115.019 27.2353 114.702 26.7571C114.389 26.2741 114.233 25.6728 114.233 24.9531C114.233 24.3471 114.344 23.8381 114.567 23.4261C114.789 23.0142 115.093 22.6828 115.476 22.4318C115.86 22.1809 116.295 21.9915 116.783 21.8636C117.275 21.7358 117.791 21.6458 118.331 21.5938C118.966 21.5275 119.477 21.4659 119.865 21.4091C120.253 21.3475 120.535 21.2576 120.71 21.1392C120.886 21.0208 120.973 20.8456 120.973 20.6136V20.571C120.973 20.1212 120.831 19.7732 120.547 19.527C120.268 19.2808 119.87 19.1577 119.354 19.1577C118.809 19.1577 118.376 19.2784 118.054 19.5199C117.732 19.7566 117.519 20.0549 117.415 20.4148L114.617 20.1875C114.759 19.5246 115.038 18.9517 115.455 18.4688C115.871 17.9811 116.409 17.607 117.067 17.3466C117.73 17.0814 118.497 16.9489 119.368 16.9489C119.974 16.9489 120.554 17.0199 121.108 17.1619C121.667 17.304 122.162 17.5241 122.593 17.8224C123.028 18.1207 123.371 18.5043 123.622 18.973C123.873 19.437 123.999 19.9934 123.999 20.642V28H121.129V26.4872H121.044C120.869 26.8281 120.635 27.1288 120.341 27.3892C120.048 27.6449 119.695 27.8461 119.283 27.9929C118.871 28.1349 118.395 28.206 117.855 28.206ZM118.722 26.1179C119.167 26.1179 119.56 26.0303 119.901 25.8551C120.242 25.6752 120.509 25.4337 120.703 25.1307C120.897 24.8277 120.994 24.4844 120.994 24.1009V22.9432C120.9 23.0047 120.77 23.0616 120.604 23.1136C120.443 23.161 120.261 23.206 120.057 23.2486C119.853 23.2865 119.65 23.322 119.446 23.3551C119.243 23.3835 119.058 23.4096 118.892 23.4332C118.537 23.4853 118.227 23.5682 117.962 23.6818C117.697 23.7955 117.491 23.9493 117.344 24.1435C117.197 24.3329 117.124 24.5696 117.124 24.8537C117.124 25.2656 117.273 25.5805 117.571 25.7983C117.874 26.0114 118.258 26.1179 118.722 26.1179ZM126.346 28V17.0909H129.279V18.9943H129.393C129.592 18.3172 129.926 17.8059 130.394 17.4602C130.863 17.1098 131.403 16.9347 132.014 16.9347C132.165 16.9347 132.329 16.9441 132.504 16.9631C132.679 16.982 132.833 17.008 132.965 17.0412V19.7259C132.823 19.6832 132.627 19.6454 132.376 19.6122C132.125 19.5791 131.895 19.5625 131.687 19.5625C131.242 19.5625 130.844 19.6596 130.494 19.8537C130.148 20.0431 129.874 20.3082 129.67 20.6491C129.471 20.9901 129.372 21.383 129.372 21.8281V28H126.346ZM139.159 32.0909V17.0909H142.142V18.9233H142.276C142.409 18.6297 142.601 18.3314 142.852 18.0284C143.107 17.7206 143.439 17.465 143.846 17.2614C144.258 17.053 144.769 16.9489 145.38 16.9489C146.176 16.9489 146.91 17.1572 147.582 17.5739C148.254 17.9858 148.792 18.6084 149.194 19.4418C149.597 20.2704 149.798 21.3097 149.798 22.5597C149.798 23.7765 149.601 24.804 149.208 25.642C148.82 26.4754 148.29 27.1075 147.617 27.5384C146.95 27.9645 146.202 28.1776 145.373 28.1776C144.786 28.1776 144.286 28.0805 143.874 27.8864C143.467 27.6922 143.133 27.4484 142.873 27.1548C142.613 26.8565 142.414 26.5559 142.276 26.2528H142.184V32.0909H139.159ZM142.12 22.5455C142.12 23.1941 142.21 23.7599 142.39 24.2429C142.57 24.7259 142.83 25.1023 143.171 25.3722C143.512 25.6373 143.927 25.7699 144.414 25.7699C144.907 25.7699 145.323 25.6349 145.664 25.3651C146.005 25.0904 146.263 24.7116 146.438 24.2287C146.618 23.741 146.708 23.1799 146.708 22.5455C146.708 21.9157 146.621 21.3617 146.445 20.8835C146.27 20.4053 146.012 20.0312 145.671 19.7614C145.33 19.4915 144.911 19.3565 144.414 19.3565C143.922 19.3565 143.505 19.4867 143.164 19.7472C142.828 20.0076 142.57 20.3769 142.39 20.8551C142.21 21.3333 142.12 21.8968 142.12 22.5455ZM154.926 28.206C154.23 28.206 153.609 28.0852 153.065 27.8438C152.52 27.5975 152.089 27.2353 151.772 26.7571C151.46 26.2741 151.303 25.6728 151.303 24.9531C151.303 24.3471 151.415 23.8381 151.637 23.4261C151.86 23.0142 152.163 22.6828 152.546 22.4318C152.93 22.1809 153.365 21.9915 153.853 21.8636C154.346 21.7358 154.862 21.6458 155.401 21.5938C156.036 21.5275 156.547 21.4659 156.936 21.4091C157.324 21.3475 157.606 21.2576 157.781 21.1392C157.956 21.0208 158.044 20.8456 158.044 20.6136V20.571C158.044 20.1212 157.901 19.7732 157.617 19.527C157.338 19.2808 156.94 19.1577 156.424 19.1577C155.88 19.1577 155.446 19.2784 155.124 19.5199C154.802 19.7566 154.589 20.0549 154.485 20.4148L151.687 20.1875C151.829 19.5246 152.108 18.9517 152.525 18.4688C152.942 17.9811 153.479 17.607 154.137 17.3466C154.8 17.0814 155.567 16.9489 156.438 16.9489C157.044 16.9489 157.624 17.0199 158.178 17.1619C158.737 17.304 159.232 17.5241 159.663 17.8224C160.098 18.1207 160.442 18.5043 160.693 18.973C160.944 19.437 161.069 19.9934 161.069 20.642V28H158.2V26.4872H158.115C157.939 26.8281 157.705 27.1288 157.411 27.3892C157.118 27.6449 156.765 27.8461 156.353 27.9929C155.941 28.1349 155.465 28.206 154.926 28.206ZM155.792 26.1179C156.237 26.1179 156.63 26.0303 156.971 25.8551C157.312 25.6752 157.579 25.4337 157.774 25.1307C157.968 24.8277 158.065 24.4844 158.065 24.1009V22.9432C157.97 23.0047 157.84 23.0616 157.674 23.1136C157.513 23.161 157.331 23.206 157.127 23.2486C156.924 23.2865 156.72 23.322 156.517 23.3551C156.313 23.3835 156.128 23.4096 155.963 23.4332C155.607 23.4853 155.297 23.5682 155.032 23.6818C154.767 23.7955 154.561 23.9493 154.414 24.1435C154.267 24.3329 154.194 24.5696 154.194 24.8537C154.194 25.2656 154.343 25.5805 154.642 25.7983C154.945 26.0114 155.328 26.1179 155.792 26.1179ZM163.416 28V17.0909H166.35V18.9943H166.463C166.662 18.3172 166.996 17.8059 167.465 17.4602C167.933 17.1098 168.473 16.9347 169.084 16.9347C169.235 16.9347 169.399 16.9441 169.574 16.9631C169.749 16.982 169.903 17.008 170.036 17.0412V19.7259C169.894 19.6832 169.697 19.6454 169.446 19.6122C169.195 19.5791 168.966 19.5625 168.757 19.5625C168.312 19.5625 167.914 19.6596 167.564 19.8537C167.218 20.0431 166.944 20.3082 166.74 20.6491C166.541 20.9901 166.442 21.383 166.442 21.8281V28H163.416ZM174.398 28.206C173.702 28.206 173.082 28.0852 172.537 27.8438C171.993 27.5975 171.562 27.2353 171.245 26.7571C170.932 26.2741 170.776 25.6728 170.776 24.9531C170.776 24.3471 170.887 23.8381 171.11 23.4261C171.332 23.0142 171.635 22.6828 172.019 22.4318C172.403 22.1809 172.838 21.9915 173.326 21.8636C173.818 21.7358 174.334 21.6458 174.874 21.5938C175.509 21.5275 176.02 21.4659 176.408 21.4091C176.796 21.3475 177.078 21.2576 177.253 21.1392C177.429 21.0208 177.516 20.8456 177.516 20.6136V20.571C177.516 20.1212 177.374 19.7732 177.09 19.527C176.811 19.2808 176.413 19.1577 175.897 19.1577C175.352 19.1577 174.919 19.2784 174.597 19.5199C174.275 19.7566 174.062 20.0549 173.958 20.4148L171.16 20.1875C171.302 19.5246 171.581 18.9517 171.998 18.4688C172.414 17.9811 172.952 17.607 173.61 17.3466C174.273 17.0814 175.04 16.9489 175.911 16.9489C176.517 16.9489 177.097 17.0199 177.651 17.1619C178.21 17.304 178.705 17.5241 179.135 17.8224C179.571 18.1207 179.914 18.5043 180.165 18.973C180.416 19.437 180.542 19.9934 180.542 20.642V28H177.672V26.4872H177.587C177.412 26.8281 177.178 27.1288 176.884 27.3892C176.59 27.6449 176.238 27.8461 175.826 27.9929C175.414 28.1349 174.938 28.206 174.398 28.206ZM175.265 26.1179C175.71 26.1179 176.103 26.0303 176.444 25.8551C176.785 25.6752 177.052 25.4337 177.246 25.1307C177.44 24.8277 177.537 24.4844 177.537 24.1009V22.9432C177.443 23.0047 177.313 23.0616 177.147 23.1136C176.986 23.161 176.804 23.206 176.6 23.2486C176.396 23.2865 176.193 23.322 175.989 23.3551C175.786 23.3835 175.601 23.4096 175.435 23.4332C175.08 23.4853 174.77 23.5682 174.505 23.6818C174.24 23.7955 174.034 23.9493 173.887 24.1435C173.74 24.3329 173.667 24.5696 173.667 24.8537C173.667 25.2656 173.816 25.5805 174.114 25.7983C174.417 26.0114 174.801 26.1179 175.265 26.1179ZM98.5096 52.206C97.8136 52.206 97.1933 52.0852 96.6488 51.8438C96.1043 51.5975 95.6734 51.2353 95.3562 50.7571C95.0437 50.2741 94.8874 49.6728 94.8874 48.9531C94.8874 48.3471 94.9987 47.8381 95.2212 47.4261C95.4438 47.0142 95.7468 46.6828 96.1303 46.4318C96.5138 46.1809 96.9495 45.9915 97.4371 45.8636C97.9296 45.7358 98.4457 45.6458 98.9854 45.5938C99.6199 45.5275 100.131 45.4659 100.52 45.4091C100.908 45.3475 101.19 45.2576 101.365 45.1392C101.54 45.0208 101.627 44.8456 101.627 44.6136V44.571C101.627 44.1212 101.485 43.7732 101.201 43.527C100.922 43.2808 100.524 43.1577 100.008 43.1577C99.4637 43.1577 99.0304 43.2784 98.7085 43.5199C98.3865 43.7566 98.1734 44.0549 98.0692 44.4148L95.271 44.1875C95.413 43.5246 95.6924 42.9517 96.109 42.4688C96.5257 41.9811 97.0631 41.607 97.7212 41.3466C98.3841 41.0814 99.1512 40.9489 100.022 40.9489C100.628 40.9489 101.208 41.0199 101.762 41.1619C102.321 41.304 102.816 41.5241 103.247 41.8224C103.682 42.1207 104.026 42.5043 104.277 42.973C104.528 43.437 104.653 43.9934 104.653 44.642V52H101.784V50.4872H101.699C101.523 50.8281 101.289 51.1288 100.995 51.3892C100.702 51.6449 100.349 51.8461 99.9371 51.9929C99.5252 52.1349 99.0494 52.206 98.5096 52.206ZM99.3761 50.1179C99.8211 50.1179 100.214 50.0303 100.555 49.8551C100.896 49.6752 101.163 49.4337 101.358 49.1307C101.552 48.8277 101.649 48.4844 101.649 48.1009V46.9432C101.554 47.0047 101.424 47.0616 101.258 47.1136C101.097 47.161 100.915 47.206 100.711 47.2486C100.508 47.2865 100.304 47.322 100.1 47.3551C99.8969 47.3835 99.7122 47.4096 99.5465 47.4332C99.1914 47.4853 98.8813 47.5682 98.6161 47.6818C98.351 47.7955 98.145 47.9493 97.9982 48.1435C97.8514 48.3329 97.7781 48.5696 97.7781 48.8537C97.7781 49.2656 97.9272 49.5805 98.2255 49.7983C98.5285 50.0114 98.9121 50.1179 99.3761 50.1179ZM111.132 39.9901V37.4545H123.078V39.9901H118.625V52H115.585V39.9901H111.132ZM128.378 52.2131C127.256 52.2131 126.29 51.9858 125.48 51.5312C124.676 51.072 124.055 50.4233 123.62 49.5852C123.184 48.7424 122.966 47.7457 122.966 46.5952C122.966 45.473 123.184 44.4882 123.62 43.6406C124.055 42.7931 124.668 42.1326 125.459 41.6591C126.255 41.1856 127.187 40.9489 128.257 40.9489C128.977 40.9489 129.647 41.0649 130.267 41.2969C130.892 41.5241 131.437 41.8674 131.901 42.3267C132.37 42.786 132.734 43.3636 132.995 44.0597C133.255 44.7509 133.385 45.5606 133.385 46.4886V47.3196H124.174V45.4446H130.537C130.537 45.009 130.443 44.6231 130.253 44.2869C130.064 43.9508 129.801 43.688 129.465 43.4986C129.133 43.3045 128.748 43.2074 128.307 43.2074C127.848 43.2074 127.441 43.3139 127.086 43.527C126.735 43.7353 126.461 44.017 126.262 44.3722C126.063 44.7225 125.961 45.1132 125.956 45.544V47.3267C125.956 47.8665 126.056 48.3329 126.255 48.7259C126.458 49.1188 126.745 49.4219 127.114 49.6349C127.483 49.848 127.921 49.9545 128.428 49.9545C128.764 49.9545 129.072 49.9072 129.351 49.8125C129.631 49.7178 129.87 49.5758 130.069 49.3864C130.267 49.197 130.419 48.965 130.523 48.6903L133.321 48.875C133.179 49.5473 132.888 50.1345 132.448 50.6364C132.012 51.1335 131.449 51.5218 130.757 51.8011C130.071 52.0758 129.278 52.2131 128.378 52.2131ZM135.36 52V41.0909H138.293V42.9943H138.407C138.605 42.3172 138.939 41.8059 139.408 41.4602C139.877 41.1098 140.417 40.9347 141.027 40.9347C141.179 40.9347 141.342 40.9441 141.517 40.9631C141.693 40.982 141.846 41.008 141.979 41.0412V43.7259C141.837 43.6832 141.641 43.6454 141.39 43.6122C141.139 43.5791 140.909 43.5625 140.701 43.5625C140.256 43.5625 139.858 43.6596 139.507 43.8537C139.162 44.0431 138.887 44.3082 138.684 44.6491C138.485 44.9901 138.385 45.383 138.385 45.8281V52H135.36ZM143.543 52V41.0909H146.477V42.9943H146.59C146.789 42.3172 147.123 41.8059 147.592 41.4602C148.06 41.1098 148.6 40.9347 149.211 40.9347C149.362 40.9347 149.526 40.9441 149.701 40.9631C149.876 40.982 150.03 41.008 150.163 41.0412V43.7259C150.021 43.6832 149.824 43.6454 149.573 43.6122C149.322 43.5791 149.093 43.5625 148.884 43.5625C148.439 43.5625 148.041 43.6596 147.691 43.8537C147.345 44.0431 147.071 44.3082 146.867 44.6491C146.668 44.9901 146.569 45.383 146.569 45.8281V52H143.543ZM154.525 52.206C153.829 52.206 153.209 52.0852 152.664 51.8438C152.12 51.5975 151.689 51.2353 151.372 50.7571C151.059 50.2741 150.903 49.6728 150.903 48.9531C150.903 48.3471 151.014 47.8381 151.237 47.4261C151.459 47.0142 151.762 46.6828 152.146 46.4318C152.529 46.1809 152.965 45.9915 153.453 45.8636C153.945 45.7358 154.461 45.6458 155.001 45.5938C155.636 45.5275 156.147 45.4659 156.535 45.4091C156.923 45.3475 157.205 45.2576 157.38 45.1392C157.556 45.0208 157.643 44.8456 157.643 44.6136V44.571C157.643 44.1212 157.501 43.7732 157.217 43.527C156.938 43.2808 156.54 43.1577 156.024 43.1577C155.479 43.1577 155.046 43.2784 154.724 43.5199C154.402 43.7566 154.189 44.0549 154.085 44.4148L151.287 44.1875C151.429 43.5246 151.708 42.9517 152.125 42.4688C152.541 41.9811 153.079 41.607 153.737 41.3466C154.4 41.0814 155.167 40.9489 156.038 40.9489C156.644 40.9489 157.224 41.0199 157.778 41.1619C158.337 41.304 158.832 41.5241 159.262 41.8224C159.698 42.1207 160.041 42.5043 160.292 42.973C160.543 43.437 160.669 43.9934 160.669 44.642V52H157.799V50.4872H157.714C157.539 50.8281 157.305 51.1288 157.011 51.3892C156.717 51.6449 156.365 51.8461 155.953 51.9929C155.541 52.1349 155.065 52.206 154.525 52.206ZM155.392 50.1179C155.837 50.1179 156.23 50.0303 156.571 49.8551C156.912 49.6752 157.179 49.4337 157.373 49.1307C157.567 48.8277 157.664 48.4844 157.664 48.1009V46.9432C157.57 47.0047 157.44 47.0616 157.274 47.1136C157.113 47.161 156.931 47.206 156.727 47.2486C156.523 47.2865 156.32 47.322 156.116 47.3551C155.913 47.3835 155.728 47.4096 155.562 47.4332C155.207 47.4853 154.897 47.5682 154.632 47.6818C154.367 47.7955 154.161 47.9493 154.014 48.1435C153.867 48.3329 153.794 48.5696 153.794 48.8537C153.794 49.2656 153.943 49.5805 154.241 49.7983C154.544 50.0114 154.928 50.1179 155.392 50.1179Z" fill="white"/>
<defs>
<linearGradient id="paint0_linear_340_1176" x1="114" y1="0" x2="114" y2="62" gradientUnits="userSpaceOnUse">
<stop stop-color="#F72046"/>
<stop offset="1" stop-color="#FF007A"/>
</linearGradient>
</defs>
</svg>
