<svg width="222" height="59" viewBox="0 0 222 59" fill="none" xmlns="http://www.w3.org/2000/svg">
<path d="M0.254972 30V0.90909H19.8572V5.98011H6.40554V12.9119H18.8487V17.983H6.40554V24.929H19.9141V30H0.254972ZM24.7472 30V0.90909H36.2244C38.4214 0.90909 40.2964 1.30208 41.8494 2.08807C43.4119 2.86458 44.6004 3.9678 45.4148 5.39773C46.2386 6.81818 46.6506 8.48958 46.6506 10.4119C46.6506 12.3437 46.2339 14.0057 45.4006 15.3977C44.5672 16.7803 43.3598 17.8409 41.7784 18.5795C40.2064 19.3182 38.303 19.6875 36.0682 19.6875H28.3835V14.7443H35.0739C36.2481 14.7443 37.2235 14.5833 38 14.2614C38.7765 13.9394 39.3542 13.4564 39.733 12.8125C40.1212 12.1686 40.3153 11.3684 40.3153 10.4119C40.3153 9.44602 40.1212 8.63163 39.733 7.96875C39.3542 7.30587 38.7718 6.80398 37.9858 6.46307C37.2093 6.11269 36.2292 5.9375 35.0455 5.9375H30.8977V30H24.7472ZM40.4574 16.7614L47.6875 30H40.8977L33.8239 16.7614H40.4574ZM50.9972 30V0.90909H62.4744C64.6714 0.90909 66.5464 1.30208 68.0994 2.08807C69.6619 2.86458 70.8504 3.9678 71.6648 5.39773C72.4886 6.81818 72.9006 8.48958 72.9006 10.4119C72.9006 12.3437 72.4839 14.0057 71.6506 15.3977C70.8172 16.7803 69.6098 17.8409 68.0284 18.5795C66.4564 19.3182 64.553 19.6875 62.3182 19.6875H54.6335V14.7443H61.3239C62.4981 14.7443 63.4735 14.5833 64.25 14.2614C65.0265 13.9394 65.6042 13.4564 65.983 12.8125C66.3712 12.1686 66.5653 11.3684 66.5653 10.4119C66.5653 9.44602 66.3712 8.63163 65.983 7.96875C65.6042 7.30587 65.0218 6.80398 64.2358 6.46307C63.4593 6.11269 62.4792 5.9375 61.2955 5.9375H57.1477V30H50.9972ZM66.7074 16.7614L73.9375 30H67.1477L60.0739 16.7614H66.7074ZM103.98 15.4545C103.98 18.6269 103.379 21.3258 102.176 23.5511C100.983 25.7765 99.3542 27.4763 97.2898 28.6506C95.2348 29.8153 92.9242 30.3977 90.358 30.3977C87.7727 30.3977 85.4527 29.8106 83.3977 28.6364C81.3428 27.4621 79.7188 25.7623 78.5256 23.5369C77.3324 21.3116 76.7358 18.6174 76.7358 15.4545C76.7358 12.2822 77.3324 9.58333 78.5256 7.35795C79.7188 5.13258 81.3428 3.4375 83.3977 2.27273C85.4527 1.09848 87.7727 0.511363 90.358 0.511363C92.9242 0.511363 95.2348 1.09848 97.2898 2.27273C99.3542 3.4375 100.983 5.13258 102.176 7.35795C103.379 9.58333 103.98 12.2822 103.98 15.4545ZM97.7443 15.4545C97.7443 13.3996 97.4366 11.6667 96.821 10.2557C96.215 8.8447 95.358 7.77462 94.25 7.04545C93.142 6.31629 91.8447 5.9517 90.358 5.9517C88.8712 5.9517 87.5739 6.31629 86.4659 7.04545C85.358 7.77462 84.4962 8.8447 83.8807 10.2557C83.2746 11.6667 82.9716 13.3996 82.9716 15.4545C82.9716 17.5095 83.2746 19.2424 83.8807 20.6534C84.4962 22.0644 85.358 23.1345 86.4659 23.8636C87.5739 24.5928 88.8712 24.9574 90.358 24.9574C91.8447 24.9574 93.142 24.5928 94.25 23.8636C95.358 23.1345 96.215 22.0644 96.821 20.6534C97.4366 19.2424 97.7443 17.5095 97.7443 15.4545ZM108.536 30V0.90909H120.013C122.21 0.90909 124.085 1.30208 125.638 2.08807C127.201 2.86458 128.389 3.9678 129.204 5.39773C130.028 6.81818 130.44 8.48958 130.44 10.4119C130.44 12.3437 130.023 14.0057 129.19 15.3977C128.356 16.7803 127.149 17.8409 125.567 18.5795C123.996 19.3182 122.092 19.6875 119.857 19.6875H112.173V14.7443H118.863C120.037 14.7443 121.013 14.5833 121.789 14.2614C122.566 13.9394 123.143 13.4564 123.522 12.8125C123.91 12.1686 124.104 11.3684 124.104 10.4119C124.104 9.44602 123.91 8.63163 123.522 7.96875C123.143 7.30587 122.561 6.80398 121.775 6.46307C120.998 6.11269 120.018 5.9375 118.835 5.9375H114.687V30H108.536ZM124.246 16.7614L131.477 30H124.687L117.613 16.7614H124.246ZM143.433 24.8864V20.0426L155.578 0.90909H159.754V7.61364H157.283L149.626 19.7301V19.9574H166.885V24.8864H143.433ZM157.396 30V23.4091L157.51 21.2642V0.90909H163.277V30H157.396ZM182.389 30.6392C179.946 30.6297 177.844 30.0284 176.082 28.8352C174.33 27.642 172.981 25.9138 172.034 23.6506C171.097 21.3873 170.633 18.6648 170.642 15.483C170.642 12.3106 171.111 9.60701 172.048 7.37216C172.995 5.13731 174.345 3.4375 176.097 2.27273C177.858 1.09848 179.955 0.511363 182.389 0.511363C184.823 0.511363 186.916 1.09848 188.668 2.27273C190.429 3.44697 191.783 5.15151 192.73 7.38636C193.677 9.61174 194.146 12.3106 194.136 15.483C194.136 18.6742 193.663 21.4015 192.716 23.6648C191.778 25.928 190.434 27.6562 188.682 28.8494C186.93 30.0426 184.832 30.6392 182.389 30.6392ZM182.389 25.5398C184.056 25.5398 185.386 24.7017 186.381 23.0256C187.375 21.3494 187.867 18.8352 187.858 15.483C187.858 13.2765 187.631 11.4394 187.176 9.97159C186.731 8.50379 186.097 7.40057 185.273 6.66193C184.458 5.9233 183.497 5.55398 182.389 5.55398C180.732 5.55398 179.406 6.38258 178.412 8.03977C177.418 9.69697 176.916 12.178 176.906 15.483C176.906 17.7178 177.129 19.5833 177.574 21.0795C178.028 22.5663 178.668 23.6837 179.491 24.4318C180.315 25.1705 181.281 25.5398 182.389 25.5398ZM198.082 24.8864V20.0426L210.227 0.90909H214.403V7.61364H211.931L204.275 19.7301V19.9574H221.533V24.8864H198.082ZM212.045 30V23.4091L212.158 21.2642V0.90909H217.925V30H212.045Z" fill="url(#paint0_linear_340_1060)"/>
<path d="M2.05895 54V39.4545H7.24361C8.37524 39.4545 9.31274 39.6605 10.0561 40.0724C10.7995 40.4844 11.3558 41.0478 11.7251 41.7628C12.0945 42.473 12.2791 43.2732 12.2791 44.1634C12.2791 45.0582 12.0921 45.8632 11.718 46.5781C11.3487 47.2884 10.79 47.8518 10.0419 48.2685C9.29853 48.6804 8.3634 48.8864 7.23651 48.8864H3.67116V47.0256H7.03764C7.7526 47.0256 8.33262 46.9025 8.7777 46.6562C9.22277 46.4053 9.54948 46.0644 9.75781 45.6335C9.96615 45.2027 10.0703 44.7126 10.0703 44.1634C10.0703 43.6141 9.96615 43.1264 9.75781 42.7003C9.54948 42.2741 9.22041 41.9403 8.7706 41.6989C8.32552 41.4574 7.7384 41.3366 7.00923 41.3366H4.25355V54H2.05895ZM17.7585 54.2415C17.0672 54.2415 16.4422 54.1136 15.8835 53.858C15.3248 53.5975 14.8821 53.2211 14.5554 52.7287C14.2334 52.2363 14.0724 51.6326 14.0724 50.9176C14.0724 50.3021 14.1908 49.7955 14.4276 49.3977C14.6643 49 14.9839 48.6851 15.3864 48.4531C15.7888 48.2211 16.2386 48.0459 16.7358 47.9276C17.233 47.8092 17.7396 47.7192 18.2557 47.6577C18.9091 47.5819 19.4394 47.5204 19.8466 47.473C20.2538 47.4209 20.5497 47.3381 20.7344 47.2244C20.919 47.1108 21.0114 46.9261 21.0114 46.6705V46.6207C21.0114 46.0005 20.8362 45.5199 20.4858 45.179C20.1402 44.8381 19.6241 44.6676 18.9375 44.6676C18.2225 44.6676 17.6591 44.8262 17.2472 45.1435C16.84 45.456 16.5582 45.804 16.402 46.1875L14.4062 45.733C14.643 45.0701 14.9886 44.535 15.4432 44.1278C15.9025 43.7159 16.4304 43.4176 17.027 43.233C17.6236 43.0436 18.2509 42.9489 18.9091 42.9489C19.3447 42.9489 19.8063 43.0009 20.294 43.1051C20.7865 43.2045 21.2457 43.3892 21.6719 43.6591C22.1027 43.929 22.4555 44.3149 22.7301 44.8168C23.0047 45.3139 23.142 45.9602 23.142 46.7557V54H21.0682V52.5085H20.983C20.8456 52.7831 20.6397 53.053 20.3651 53.3182C20.0904 53.5833 19.7377 53.8035 19.3068 53.9787C18.8759 54.1539 18.3598 54.2415 17.7585 54.2415ZM18.2202 52.5369C18.8073 52.5369 19.3092 52.4209 19.7259 52.1889C20.1473 51.9569 20.4669 51.6539 20.6847 51.2798C20.9072 50.901 21.0185 50.4962 21.0185 50.0653V48.6591C20.9427 48.7348 20.7959 48.8059 20.5781 48.8722C20.3651 48.9337 20.1212 48.9882 19.8466 49.0355C19.572 49.0781 19.3045 49.1184 19.044 49.1562C18.7836 49.1894 18.5658 49.2178 18.3906 49.2415C17.9787 49.2936 17.6023 49.3812 17.2614 49.5043C16.9252 49.6274 16.6553 49.8049 16.4517 50.0369C16.2528 50.2642 16.1534 50.5672 16.1534 50.946C16.1534 51.4716 16.3475 51.8693 16.7358 52.1392C17.1241 52.4044 17.6188 52.5369 18.2202 52.5369ZM18.142 41.6349L19.804 38.3608H22.0412L19.8395 41.6349H18.142ZM30.5444 58.3182C29.6779 58.3182 28.9322 58.2045 28.3072 57.9773C27.6869 57.75 27.1803 57.4493 26.7873 57.0753C26.3943 56.7012 26.1007 56.2917 25.9066 55.8466L27.7319 55.0938C27.8597 55.3021 28.0302 55.5223 28.2433 55.7543C28.4611 55.991 28.7546 56.1922 29.1239 56.358C29.498 56.5237 29.9786 56.6065 30.5657 56.6065C31.3706 56.6065 32.0359 56.41 32.5614 56.017C33.087 55.6288 33.3498 55.0085 33.3498 54.1562V52.0114H33.2148C33.087 52.2434 32.9023 52.5014 32.6609 52.7855C32.4241 53.0696 32.0974 53.3158 31.6808 53.5241C31.2641 53.7325 30.7219 53.8366 30.0543 53.8366C29.1926 53.8366 28.4161 53.6354 27.7248 53.233C27.0382 52.8258 26.4937 52.2268 26.0913 51.4361C25.6935 50.6406 25.4947 49.6629 25.4947 48.5028C25.4947 47.3428 25.6912 46.3485 26.0842 45.5199C26.4819 44.6913 27.0264 44.0568 27.7177 43.6165C28.409 43.1714 29.1926 42.9489 30.0685 42.9489C30.7456 42.9489 31.2925 43.0625 31.7092 43.2898C32.1258 43.5123 32.4502 43.7727 32.6822 44.071C32.9189 44.3693 33.1012 44.6321 33.229 44.8594H33.3853V43.0909H35.4663V54.2415C35.4663 55.179 35.2485 55.9484 34.8129 56.5497C34.3772 57.151 33.7878 57.5961 33.0444 57.8849C32.3058 58.1738 31.4724 58.3182 30.5444 58.3182ZM30.5231 52.0753C31.1339 52.0753 31.65 51.9332 32.0714 51.6491C32.4975 51.3603 32.8195 50.9484 33.0373 50.4134C33.2598 49.8736 33.3711 49.2273 33.3711 48.4744C33.3711 47.7405 33.2622 47.0942 33.0444 46.5355C32.8266 45.9768 32.507 45.5412 32.0856 45.2287C31.6642 44.9115 31.1433 44.7528 30.5231 44.7528C29.8839 44.7528 29.3512 44.9186 28.9251 45.25C28.4989 45.5767 28.177 46.0218 27.9592 46.5852C27.7461 47.1487 27.6396 47.7784 27.6396 48.4744C27.6396 49.1894 27.7485 49.8168 27.9663 50.3565C28.1841 50.8963 28.506 51.3177 28.9322 51.6207C29.363 51.9238 29.8933 52.0753 30.5231 52.0753ZM38.3143 54V43.0909H40.4379V54H38.3143ZM39.3867 41.4077C39.0174 41.4077 38.7002 41.2846 38.435 41.0384C38.1746 40.7874 38.0444 40.4891 38.0444 40.1435C38.0444 39.7931 38.1746 39.4948 38.435 39.2486C38.7002 38.9976 39.0174 38.8722 39.3867 38.8722C39.756 38.8722 40.0709 38.9976 40.3313 39.2486C40.5965 39.4948 40.729 39.7931 40.729 40.1435C40.729 40.4891 40.5965 40.7874 40.3313 41.0384C40.0709 41.2846 39.756 41.4077 39.3867 41.4077ZM45.4183 47.5227V54H43.2947V43.0909H45.3331V44.8665H45.468C45.719 44.2888 46.112 43.8248 46.647 43.4744C47.1868 43.1241 47.8662 42.9489 48.6854 42.9489C49.4287 42.9489 50.0798 43.1051 50.6385 43.4176C51.1972 43.7254 51.6304 44.1847 51.9382 44.7955C52.246 45.4062 52.3999 46.1615 52.3999 47.0611V54H50.2763V47.3168C50.2763 46.526 50.0703 45.9081 49.6584 45.4631C49.2464 45.0133 48.6806 44.7884 47.9609 44.7884C47.4685 44.7884 47.0305 44.8949 46.647 45.108C46.2682 45.321 45.9676 45.6335 45.745 46.0455C45.5272 46.4527 45.4183 46.9451 45.4183 47.5227ZM58.4226 54.2415C57.7313 54.2415 57.1063 54.1136 56.5476 53.858C55.9889 53.5975 55.5462 53.2211 55.2195 52.7287C54.8975 52.2363 54.7365 51.6326 54.7365 50.9176C54.7365 50.3021 54.8549 49.7955 55.0916 49.3977C55.3284 49 55.648 48.6851 56.0504 48.4531C56.4529 48.2211 56.9027 48.0459 57.3999 47.9276C57.897 47.8092 58.4036 47.7192 58.9197 47.6577C59.5732 47.5819 60.1035 47.5204 60.5107 47.473C60.9179 47.4209 61.2138 47.3381 61.3984 47.2244C61.5831 47.1108 61.6754 46.9261 61.6754 46.6705V46.6207C61.6754 46.0005 61.5002 45.5199 61.1499 45.179C60.8042 44.8381 60.2881 44.6676 59.6016 44.6676C58.8866 44.6676 58.3232 44.8262 57.9112 45.1435C57.504 45.456 57.2223 45.804 57.0661 46.1875L55.0703 45.733C55.3071 45.0701 55.6527 44.535 56.1072 44.1278C56.5665 43.7159 57.0945 43.4176 57.6911 43.233C58.2876 43.0436 58.915 42.9489 59.5732 42.9489C60.0088 42.9489 60.4704 43.0009 60.9581 43.1051C61.4505 43.2045 61.9098 43.3892 62.3359 43.6591C62.7668 43.929 63.1196 44.3149 63.3942 44.8168C63.6688 45.3139 63.8061 45.9602 63.8061 46.7557V54H61.7322V52.5085H61.647C61.5097 52.7831 61.3037 53.053 61.0291 53.3182C60.7545 53.5833 60.4018 53.8035 59.9709 53.9787C59.54 54.1539 59.0239 54.2415 58.4226 54.2415ZM58.8842 52.5369C59.4714 52.5369 59.9732 52.4209 60.3899 52.1889C60.8113 51.9569 61.1309 51.6539 61.3487 51.2798C61.5713 50.901 61.6825 50.4962 61.6825 50.0653V48.6591C61.6068 48.7348 61.46 48.8059 61.2422 48.8722C61.0291 48.9337 60.7853 48.9882 60.5107 49.0355C60.236 49.0781 59.9685 49.1184 59.7081 49.1562C59.4477 49.1894 59.2299 49.2178 59.0547 49.2415C58.6428 49.2936 58.2663 49.3812 57.9254 49.5043C57.5893 49.6274 57.3194 49.8049 57.1158 50.0369C56.9169 50.2642 56.8175 50.5672 56.8175 50.946C56.8175 51.4716 57.0116 51.8693 57.3999 52.1392C57.7881 52.4044 58.2829 52.5369 58.8842 52.5369ZM74.0511 47.5227V54H71.9276V43.0909H73.9659V44.8665H74.1009C74.3518 44.2888 74.7448 43.8248 75.2798 43.4744C75.8196 43.1241 76.4991 42.9489 77.3182 42.9489C78.0616 42.9489 78.7126 43.1051 79.2713 43.4176C79.83 43.7254 80.2633 44.1847 80.571 44.7955C80.8788 45.4062 81.0327 46.1615 81.0327 47.0611V54H78.9091V47.3168C78.9091 46.526 78.7031 45.9081 78.2912 45.4631C77.8793 45.0133 77.3134 44.7884 76.5938 44.7884C76.1013 44.7884 75.6634 44.8949 75.2798 45.108C74.901 45.321 74.6004 45.6335 74.3778 46.0455C74.16 46.4527 74.0511 46.9451 74.0511 47.5227ZM87.0554 54.2415C86.3641 54.2415 85.7391 54.1136 85.1804 53.858C84.6217 53.5975 84.179 53.2211 83.8523 52.7287C83.5303 52.2363 83.3693 51.6326 83.3693 50.9176C83.3693 50.3021 83.4877 49.7955 83.7244 49.3977C83.9612 49 84.2808 48.6851 84.6832 48.4531C85.0857 48.2211 85.5355 48.0459 86.0327 47.9276C86.5298 47.8092 87.0365 47.7192 87.5526 47.6577C88.206 47.5819 88.7363 47.5204 89.1435 47.473C89.5507 47.4209 89.8466 47.3381 90.0312 47.2244C90.2159 47.1108 90.3082 46.9261 90.3082 46.6705V46.6207C90.3082 46.0005 90.133 45.5199 89.7827 45.179C89.437 44.8381 88.9209 44.6676 88.2344 44.6676C87.5194 44.6676 86.956 44.8262 86.544 45.1435C86.1368 45.456 85.8551 45.804 85.6989 46.1875L83.7031 45.733C83.9399 45.0701 84.2855 44.535 84.7401 44.1278C85.1993 43.7159 85.7273 43.4176 86.3239 43.233C86.9205 43.0436 87.5478 42.9489 88.206 42.9489C88.6416 42.9489 89.1032 43.0009 89.5909 43.1051C90.0833 43.2045 90.5426 43.3892 90.9688 43.6591C91.3996 43.929 91.7524 44.3149 92.027 44.8168C92.3016 45.3139 92.4389 45.9602 92.4389 46.7557V54H90.3651V52.5085H90.2798C90.1425 52.7831 89.9366 53.053 89.6619 53.3182C89.3873 53.5833 89.0346 53.8035 88.6037 53.9787C88.1728 54.1539 87.6567 54.2415 87.0554 54.2415ZM87.517 52.5369C88.1042 52.5369 88.6061 52.4209 89.0227 52.1889C89.4441 51.9569 89.7637 51.6539 89.9815 51.2798C90.2041 50.901 90.3153 50.4962 90.3153 50.0653V48.6591C90.2396 48.7348 90.0928 48.8059 89.875 48.8722C89.6619 48.9337 89.4181 48.9882 89.1435 49.0355C88.8688 49.0781 88.6013 49.1184 88.3409 49.1562C88.0805 49.1894 87.8627 49.2178 87.6875 49.2415C87.2756 49.2936 86.8991 49.3812 86.5582 49.5043C86.2221 49.6274 85.9522 49.8049 85.7486 50.0369C85.5497 50.2642 85.4503 50.5672 85.4503 50.946C85.4503 51.4716 85.6444 51.8693 86.0327 52.1392C86.4209 52.4044 86.9157 52.5369 87.517 52.5369ZM86.1818 41.7699L84.7543 41.7273C84.7543 40.9413 84.965 40.3139 85.3864 39.8452C85.8125 39.3764 86.3381 39.142 86.9631 39.142C87.2519 39.142 87.5052 39.1918 87.723 39.2912C87.9408 39.3859 88.1444 39.4972 88.3338 39.625C88.5279 39.7481 88.7197 39.8594 88.9091 39.9588C89.1032 40.0535 89.3187 40.1009 89.5554 40.1009C89.83 40.1009 90.0526 39.9967 90.223 39.7884C90.3982 39.58 90.4858 39.322 90.4858 39.0142L91.8849 39.1065C91.8849 39.8973 91.6719 40.5199 91.2457 40.9744C90.8196 41.4242 90.2964 41.6515 89.6761 41.6562C89.34 41.6562 89.0606 41.6089 88.8381 41.5142C88.6203 41.4148 88.4261 41.3035 88.2557 41.1804C88.0852 41.0526 87.91 40.9389 87.7301 40.8395C87.5502 40.7401 87.3348 40.6903 87.0838 40.6903C86.8187 40.6903 86.6009 40.7945 86.4304 41.0028C86.2647 41.2064 86.1818 41.4621 86.1818 41.7699ZM99.8626 54.2202C98.8398 54.2202 97.9473 53.9858 97.185 53.517C96.4227 53.0483 95.8308 52.3925 95.4094 51.5497C94.988 50.7069 94.7773 49.7221 94.7773 48.5952C94.7773 47.4635 94.988 46.474 95.4094 45.6264C95.8308 44.7789 96.4227 44.1207 97.185 43.652C97.9473 43.1832 98.8398 42.9489 99.8626 42.9489C100.885 42.9489 101.778 43.1832 102.54 43.652C103.302 44.1207 103.894 44.7789 104.316 45.6264C104.737 46.474 104.948 47.4635 104.948 48.5952C104.948 49.7221 104.737 50.7069 104.316 51.5497C103.894 52.3925 103.302 53.0483 102.54 53.517C101.778 53.9858 100.885 54.2202 99.8626 54.2202ZM99.8697 52.4375C100.533 52.4375 101.082 52.2623 101.517 51.9119C101.953 51.5616 102.275 51.0952 102.483 50.5128C102.696 49.9304 102.803 49.2888 102.803 48.5881C102.803 47.892 102.696 47.2528 102.483 46.6705C102.275 46.0833 101.953 45.6122 101.517 45.2571C101.082 44.902 100.533 44.7244 99.8697 44.7244C99.2021 44.7244 98.6481 44.902 98.2077 45.2571C97.7721 45.6122 97.4478 46.0833 97.2347 46.6705C97.0264 47.2528 96.9222 47.892 96.9222 48.5881C96.9222 49.2888 97.0264 49.9304 97.2347 50.5128C97.4478 51.0952 97.7721 51.5616 98.2077 51.9119C98.6481 52.2623 99.2021 52.4375 99.8697 52.4375ZM117.313 54.2202C116.238 54.2202 115.312 53.9905 114.536 53.5312C113.764 53.0672 113.167 52.4162 112.746 51.5781C112.329 50.7353 112.121 49.7481 112.121 48.6165C112.121 47.4991 112.329 46.5142 112.746 45.6619C113.167 44.8097 113.755 44.1444 114.507 43.6662C115.265 43.188 116.15 42.9489 117.164 42.9489C117.779 42.9489 118.376 43.0507 118.953 43.2543C119.531 43.4579 120.05 43.7775 120.509 44.2131C120.968 44.6487 121.33 45.2145 121.596 45.9105C121.861 46.6018 121.993 47.4422 121.993 48.4318V49.1847H113.321V47.5938H119.912C119.912 47.035 119.799 46.5402 119.571 46.1094C119.344 45.6738 119.025 45.3305 118.613 45.0795C118.205 44.8286 117.727 44.7031 117.178 44.7031C116.581 44.7031 116.06 44.8499 115.615 45.1435C115.175 45.4323 114.834 45.8111 114.593 46.2798C114.356 46.7438 114.238 47.2481 114.238 47.7926V49.0355C114.238 49.7647 114.365 50.3849 114.621 50.8963C114.882 51.4077 115.244 51.7983 115.708 52.0682C116.172 52.3333 116.714 52.4659 117.334 52.4659C117.737 52.4659 118.104 52.4091 118.435 52.2955C118.766 52.1771 119.053 52.0019 119.294 51.7699C119.536 51.5379 119.721 51.2514 119.848 50.9105L121.858 51.2727C121.697 51.8646 121.408 52.383 120.992 52.8281C120.58 53.2685 120.061 53.6117 119.436 53.858C118.816 54.0994 118.108 54.2202 117.313 54.2202ZM126.473 47.5227V54H124.349V43.0909H126.388V44.8665H126.523C126.774 44.2888 127.167 43.8248 127.702 43.4744C128.241 43.1241 128.921 42.9489 129.74 42.9489C130.483 42.9489 131.134 43.1051 131.693 43.4176C132.252 43.7254 132.685 44.1847 132.993 44.7955C133.301 45.4062 133.455 46.1615 133.455 47.0611V54H131.331V47.3168C131.331 46.526 131.125 45.9081 130.713 45.4631C130.301 45.0133 129.735 44.7884 129.016 44.7884C128.523 44.7884 128.085 44.8949 127.702 45.108C127.323 45.321 127.022 45.6335 126.8 46.0455C126.582 46.4527 126.473 46.9451 126.473 47.5227ZM140.898 54.2202C139.842 54.2202 138.933 53.9811 138.17 53.5028C137.413 53.0199 136.83 52.3546 136.423 51.5071C136.016 50.6596 135.812 49.6889 135.812 48.5952C135.812 47.4872 136.021 46.5095 136.438 45.6619C136.854 44.8097 137.441 44.1444 138.199 43.6662C138.956 43.188 139.849 42.9489 140.876 42.9489C141.705 42.9489 142.444 43.1027 143.092 43.4105C143.741 43.7135 144.264 44.1397 144.662 44.6889C145.064 45.2382 145.304 45.8797 145.379 46.6136H143.312C143.199 46.1023 142.938 45.6619 142.531 45.2926C142.129 44.9233 141.589 44.7386 140.912 44.7386C140.32 44.7386 139.802 44.8949 139.357 45.2074C138.916 45.5152 138.573 45.9555 138.327 46.5284C138.08 47.0966 137.957 47.7689 137.957 48.5455C137.957 49.3409 138.078 50.0275 138.32 50.6051C138.561 51.1828 138.902 51.6302 139.342 51.9474C139.787 52.2647 140.311 52.4233 140.912 52.4233C141.314 52.4233 141.679 52.3499 142.006 52.2031C142.337 52.0516 142.614 51.8362 142.837 51.5568C143.064 51.2775 143.223 50.9413 143.312 50.5483H145.379C145.304 51.2538 145.074 51.8835 144.69 52.4375C144.307 52.9915 143.793 53.4271 143.149 53.7443C142.51 54.0616 141.759 54.2202 140.898 54.2202ZM152.245 54.2202C151.223 54.2202 150.33 53.9858 149.568 53.517C148.806 53.0483 148.214 52.3925 147.792 51.5497C147.371 50.7069 147.16 49.7221 147.16 48.5952C147.16 47.4635 147.371 46.474 147.792 45.6264C148.214 44.7789 148.806 44.1207 149.568 43.652C150.33 43.1832 151.223 42.9489 152.245 42.9489C153.268 42.9489 154.161 43.1832 154.923 43.652C155.685 44.1207 156.277 44.7789 156.699 45.6264C157.12 46.474 157.331 47.4635 157.331 48.5952C157.331 49.7221 157.12 50.7069 156.699 51.5497C156.277 52.3925 155.685 53.0483 154.923 53.517C154.161 53.9858 153.268 54.2202 152.245 54.2202ZM152.252 52.4375C152.915 52.4375 153.465 52.2623 153.9 51.9119C154.336 51.5616 154.658 51.0952 154.866 50.5128C155.079 49.9304 155.186 49.2888 155.186 48.5881C155.186 47.892 155.079 47.2528 154.866 46.6705C154.658 46.0833 154.336 45.6122 153.9 45.2571C153.465 44.902 152.915 44.7244 152.252 44.7244C151.585 44.7244 151.031 44.902 150.591 45.2571C150.155 45.6122 149.831 46.0833 149.618 46.6705C149.409 47.2528 149.305 47.892 149.305 48.5881C149.305 49.2888 149.409 49.9304 149.618 50.5128C149.831 51.0952 150.155 51.5616 150.591 51.9119C151.031 52.2623 151.585 52.4375 152.252 52.4375ZM161.825 47.5227V54H159.701V43.0909H161.739V44.8665H161.874C162.125 44.2888 162.518 43.8248 163.053 43.4744C163.593 43.1241 164.272 42.9489 165.092 42.9489C165.835 42.9489 166.486 43.1051 167.045 43.4176C167.603 43.7254 168.037 44.1847 168.344 44.7955C168.652 45.4062 168.806 46.1615 168.806 47.0611V54H166.683V47.3168C166.683 46.526 166.477 45.9081 166.065 45.4631C165.653 45.0133 165.087 44.7884 164.367 44.7884C163.875 44.7884 163.437 44.8949 163.053 45.108C162.674 45.321 162.374 45.6335 162.151 46.0455C161.933 46.4527 161.825 46.9451 161.825 47.5227ZM176.746 43.0909V44.7955H170.788V43.0909H176.746ZM172.386 40.4773H174.509V50.7969C174.509 51.2088 174.571 51.5189 174.694 51.7273C174.817 51.9309 174.976 52.0705 175.17 52.1463C175.369 52.2173 175.584 52.2528 175.816 52.2528C175.987 52.2528 176.136 52.241 176.263 52.2173C176.391 52.1937 176.491 52.1747 176.562 52.1605L176.945 53.9148C176.822 53.9621 176.647 54.0095 176.42 54.0568C176.192 54.1089 175.908 54.1373 175.567 54.142C175.009 54.1515 174.488 54.0521 174.005 53.8438C173.522 53.6354 173.131 53.3134 172.833 52.8778C172.535 52.4422 172.386 51.8954 172.386 51.2372V40.4773ZM179.096 54V43.0909H181.148V44.8239H181.262C181.461 44.2367 181.811 43.7751 182.313 43.4389C182.819 43.098 183.392 42.9276 184.032 42.9276C184.164 42.9276 184.32 42.9323 184.5 42.9418C184.685 42.9512 184.829 42.9631 184.934 42.9773V45.0085C184.848 44.9848 184.697 44.9588 184.479 44.9304C184.261 44.8973 184.043 44.8807 183.826 44.8807C183.324 44.8807 182.876 44.9872 182.483 45.2003C182.095 45.4086 181.787 45.6998 181.56 46.0739C181.333 46.4432 181.219 46.8646 181.219 47.3381V54H179.096ZM189.848 54.2415C189.157 54.2415 188.532 54.1136 187.973 53.858C187.415 53.5975 186.972 53.2211 186.645 52.7287C186.323 52.2363 186.162 51.6326 186.162 50.9176C186.162 50.3021 186.281 49.7955 186.517 49.3977C186.754 49 187.074 48.6851 187.476 48.4531C187.879 48.2211 188.328 48.0459 188.826 47.9276C189.323 47.8092 189.829 47.7192 190.346 47.6577C190.999 47.5819 191.529 47.5204 191.936 47.473C192.344 47.4209 192.64 47.3381 192.824 47.2244C193.009 47.1108 193.101 46.9261 193.101 46.6705V46.6207C193.101 46.0005 192.926 45.5199 192.576 45.179C192.23 44.8381 191.714 44.6676 191.027 44.6676C190.312 44.6676 189.749 44.8262 189.337 45.1435C188.93 45.456 188.648 45.804 188.492 46.1875L186.496 45.733C186.733 45.0701 187.078 44.535 187.533 44.1278C187.992 43.7159 188.52 43.4176 189.117 43.233C189.713 43.0436 190.341 42.9489 190.999 42.9489C191.435 42.9489 191.896 43.0009 192.384 43.1051C192.876 43.2045 193.336 43.3892 193.762 43.6591C194.193 43.929 194.545 44.3149 194.82 44.8168C195.095 45.3139 195.232 45.9602 195.232 46.7557V54H193.158V52.5085H193.073C192.935 52.7831 192.73 53.053 192.455 53.3182C192.18 53.5833 191.828 53.8035 191.397 53.9787C190.966 54.1539 190.45 54.2415 189.848 54.2415ZM190.31 52.5369C190.897 52.5369 191.399 52.4209 191.816 52.1889C192.237 51.9569 192.557 51.6539 192.775 51.2798C192.997 50.901 193.108 50.4962 193.108 50.0653V48.6591C193.033 48.7348 192.886 48.8059 192.668 48.8722C192.455 48.9337 192.211 48.9882 191.936 49.0355C191.662 49.0781 191.394 49.1184 191.134 49.1562C190.873 49.1894 190.656 49.2178 190.48 49.2415C190.069 49.2936 189.692 49.3812 189.351 49.5043C189.015 49.6274 188.745 49.8049 188.542 50.0369C188.343 50.2642 188.243 50.5672 188.243 50.946C188.243 51.4716 188.437 51.8693 188.826 52.1392C189.214 52.4044 189.709 52.5369 190.31 52.5369ZM202.144 54.2131C201.263 54.2131 200.478 53.9882 199.786 53.5384C199.1 53.0838 198.56 52.4375 198.167 51.5994C197.779 50.7566 197.585 49.7457 197.585 48.5668C197.585 47.3878 197.781 46.3793 198.174 45.5412C198.572 44.7031 199.116 44.0616 199.808 43.6165C200.499 43.1714 201.282 42.9489 202.158 42.9489C202.835 42.9489 203.38 43.0625 203.792 43.2898C204.209 43.5123 204.531 43.7727 204.758 44.071C204.99 44.3693 205.17 44.6321 205.298 44.8594H205.425V39.4545H207.549V54H205.475V52.3026H205.298C205.17 52.5346 204.985 52.7997 204.744 53.098C204.507 53.3963 204.18 53.6567 203.763 53.8793C203.347 54.1018 202.807 54.2131 202.144 54.2131ZM202.613 52.402C203.224 52.402 203.74 52.241 204.161 51.919C204.587 51.5923 204.909 51.1402 205.127 50.5625C205.35 49.9848 205.461 49.3125 205.461 48.5455C205.461 47.7879 205.352 47.125 205.134 46.5568C204.916 45.9886 204.597 45.5459 204.175 45.2287C203.754 44.9115 203.233 44.7528 202.613 44.7528C201.974 44.7528 201.441 44.9186 201.015 45.25C200.589 45.5814 200.267 46.0336 200.049 46.6065C199.836 47.1795 199.729 47.8258 199.729 48.5455C199.729 49.2746 199.838 49.9304 200.056 50.5128C200.274 51.0952 200.596 51.5568 201.022 51.8977C201.453 52.2339 201.983 52.402 202.613 52.402ZM213.755 54.2415C213.063 54.2415 212.438 54.1136 211.88 53.858C211.321 53.5975 210.878 53.2211 210.551 52.7287C210.23 52.2363 210.069 51.6326 210.069 50.9176C210.069 50.3021 210.187 49.7955 210.424 49.3977C210.66 49 210.98 48.6851 211.382 48.4531C211.785 48.2211 212.235 48.0459 212.732 47.9276C213.229 47.8092 213.736 47.7192 214.252 47.6577C214.905 47.5819 215.435 47.5204 215.843 47.473C216.25 47.4209 216.546 47.3381 216.73 47.2244C216.915 47.1108 217.007 46.9261 217.007 46.6705V46.6207C217.007 46.0005 216.832 45.5199 216.482 45.179C216.136 44.8381 215.62 44.6676 214.934 44.6676C214.219 44.6676 213.655 44.8262 213.243 45.1435C212.836 45.456 212.554 45.804 212.398 46.1875L210.402 45.733C210.639 45.0701 210.985 44.535 211.439 44.1278C211.899 43.7159 212.426 43.4176 213.023 43.233C213.62 43.0436 214.247 42.9489 214.905 42.9489C215.341 42.9489 215.802 43.0009 216.29 43.1051C216.783 43.2045 217.242 43.3892 217.668 43.6591C218.099 43.929 218.452 44.3149 218.726 44.8168C219.001 45.3139 219.138 45.9602 219.138 46.7557V54H217.064V52.5085H216.979C216.842 52.7831 216.636 53.053 216.361 53.3182C216.087 53.5833 215.734 53.8035 215.303 53.9787C214.872 54.1539 214.356 54.2415 213.755 54.2415ZM214.216 52.5369C214.803 52.5369 215.305 52.4209 215.722 52.1889C216.143 51.9569 216.463 51.6539 216.681 51.2798C216.903 50.901 217.015 50.4962 217.015 50.0653V48.6591C216.939 48.7348 216.792 48.8059 216.574 48.8722C216.361 48.9337 216.117 48.9882 215.843 49.0355C215.568 49.0781 215.301 49.1184 215.04 49.1562C214.78 49.1894 214.562 49.2178 214.387 49.2415C213.975 49.2936 213.598 49.3812 213.257 49.5043C212.921 49.6274 212.651 49.8049 212.448 50.0369C212.249 50.2642 212.15 50.5672 212.15 50.946C212.15 51.4716 212.344 51.8693 212.732 52.1392C213.12 52.4044 213.615 52.5369 214.216 52.5369Z" fill="white"/>
<defs>
<linearGradient id="paint0_linear_340_1060" x1="110.5" y1="-9" x2="110.5" y2="66" gradientUnits="userSpaceOnUse">
<stop stop-color="#F72046"/>
<stop offset="1" stop-color="#FF007A"/>
</linearGradient>
</defs>
</svg>
