<svg width="282" height="350" viewBox="0 0 282 350" fill="none" xmlns="http://www.w3.org/2000/svg">
<path d="M136.845 129.424C137.069 130.119 137.251 130.833 137.388 131.545C137.564 132.466 138.369 133.106 139.273 133.106C139.393 133.106 139.515 133.095 139.637 133.072C140.679 132.872 141.362 131.865 141.163 130.823C140.997 129.956 140.775 129.089 140.503 128.245C140.178 127.235 139.096 126.679 138.084 127.006C137.074 127.332 136.519 128.415 136.845 129.424Z" fill="white"/>
<path d="M117.264 114.596C117.262 115.657 118.121 116.519 119.182 116.521C124.731 116.53 130.165 119.187 133.72 123.627C134.099 124.101 134.658 124.348 135.222 124.348C135.642 124.348 136.067 124.21 136.421 123.926C137.25 123.263 137.383 122.054 136.72 121.225C132.445 115.884 125.891 112.689 119.189 112.677C119.187 112.677 119.187 112.677 119.186 112.677C118.126 112.677 117.266 113.535 117.264 114.596Z" fill="white"/>
<path d="M125.592 179.417H116.958C115.897 179.417 115.036 180.277 115.036 181.338C115.036 182.399 115.897 183.26 116.958 183.26H125.592C126.654 183.26 127.514 182.399 127.514 181.338C127.514 180.277 126.654 179.417 125.592 179.417Z" fill="white"/>
<path d="M253.437 193.673L247.544 187.779C243.773 184.008 237.896 183.597 233.665 186.541L229.814 182.691C230.394 182.767 230.784 182.818 230.805 182.818C231.222 182.818 231.631 182.682 231.968 182.427C232.374 182.118 232.64 181.662 232.709 181.157L237.489 146.124C237.633 145.073 236.897 144.104 235.846 143.96L227.585 142.83C222.3 142.109 217.373 145.342 215.786 150.246L197.136 147.702C195.815 147.521 194.498 147.469 193.195 147.533V139.038C193.195 134.992 191.62 131.192 188.763 128.342C185.913 125.486 182.116 123.912 178.069 123.912C174.029 123.912 170.231 125.486 167.374 128.344C164.517 131.202 162.945 135 162.949 139.038V149.297H155.516L147.894 141.674C148.451 139.404 148.753 137.034 148.753 134.594C148.753 118.211 135.424 104.883 119.042 104.883C104.113 104.883 91.7255 115.951 89.643 130.312L75.9562 143.999C73.4052 146.55 72 149.942 72 153.55C72 157.158 73.4052 160.55 75.9566 163.102L106.991 194.136V197.352C106.991 209.005 116.472 218.486 128.125 218.486H131.142L132.66 220.002C140.07 227.413 149.8 231.117 159.534 231.117C169.265 231.117 179 227.411 186.408 220.002L205.412 201.068L225.718 221.391C226.094 221.766 226.586 221.954 227.077 221.954C227.568 221.954 228.061 221.766 228.436 221.391L253.437 196.39C254.187 195.64 254.187 194.423 253.437 193.673ZM207.334 197.554V183.008C210.35 182.6 213.261 181.241 215.574 178.928C216.434 178.069 217.167 177.117 217.778 176.089L226.085 184.397L210.131 200.351L207.334 197.554ZM184.96 178.74L176.593 170.373L177.149 166.306C177.152 166.288 177.155 166.271 177.158 166.254C178.28 166.804 179.471 167.207 180.725 167.454C181.661 167.638 182.601 167.728 183.534 167.728C185.778 167.728 187.979 167.194 189.992 166.173L193.465 170.742C192.404 171.473 191.399 172.301 190.469 173.232L184.96 178.74ZM193.892 151.354C194.14 152.679 194.134 154.02 193.873 155.352C193.328 158.122 191.738 160.513 189.395 162.087C187.051 163.661 184.237 164.229 181.466 163.683C180.279 163.449 179.166 163.026 178.146 162.425C179.284 159.454 181.224 156.849 183.82 154.875C186.764 152.637 190.264 151.427 193.892 151.354ZM205.412 167.041C202.414 167.041 199.514 167.667 196.852 168.847L193.17 164.003C195.471 161.932 197.036 159.186 197.644 156.094C197.933 154.623 197.988 153.143 197.821 151.675L208.45 153.124L206.55 167.074C206.173 167.053 205.794 167.041 205.412 167.041ZM205.412 170.885C208.777 170.885 211.993 171.844 214.755 173.625C214.258 174.575 213.625 175.442 212.856 176.21C208.736 180.33 202.033 180.33 197.913 176.21C197.148 175.445 196.519 174.587 196.028 173.651C198.799 171.853 202.03 170.885 205.412 170.885ZM229.161 178.733L226.122 178.317L230.386 147.092L233.422 147.507L229.161 178.733ZM217.002 154.29C218.058 154.428 219.022 153.698 219.165 152.646C219.666 148.978 222.934 146.362 226.575 146.597L222.627 175.503L220.355 173.231C217.556 170.433 214.11 168.519 210.354 167.623L212.258 153.643L217.002 154.29ZM181.494 151.815C179.016 153.699 177.027 156.055 175.61 158.725L166.793 149.908C166.793 149.908 166.797 138.737 166.803 138.587H189.341C189.346 138.738 189.352 148.085 189.352 148.085C186.538 148.758 183.867 150.011 181.494 151.815ZM178.069 127.756C181.088 127.756 183.919 128.928 186.045 131.06C187.119 132.131 187.949 133.382 188.509 134.744H167.633C168.192 133.383 169.021 132.133 170.093 131.061C172.223 128.93 175.056 127.756 178.069 127.756ZM164.59 153.14C164.59 153.14 173.951 162.481 174.045 162.546C173.731 163.597 173.493 164.679 173.342 165.787L173.182 166.962L159.36 153.141H164.59V153.14ZM182.243 181.458L176.326 187.374L142.169 153.218C143.975 150.98 145.461 148.477 146.562 145.777L182.243 181.458ZM144.91 134.594C144.91 135.489 144.865 136.373 144.775 137.244C138.473 143.369 129.96 145.958 122.621 144.055C122.48 141.646 121.486 139.398 119.765 137.677C117.905 135.817 115.432 134.793 112.802 134.793C112.381 134.793 111.965 134.829 111.553 134.881C107.935 127.033 110.313 116.801 117.609 109.505C117.879 109.235 118.144 108.984 118.405 108.743C118.618 108.738 118.829 108.727 119.043 108.727C133.306 108.727 144.91 120.331 144.91 134.594ZM112.802 138.636C114.406 138.636 115.914 139.261 117.047 140.395C118.181 141.528 118.806 143.036 118.806 144.64C118.806 146.244 118.181 147.751 117.047 148.885C115.914 150.019 114.406 150.643 112.802 150.643C111.199 150.643 109.691 150.019 108.557 148.884C107.423 147.751 106.799 146.244 106.799 144.64C106.799 143.036 107.423 141.528 108.557 140.395C109.691 139.261 111.199 138.636 112.802 138.636ZM112.399 109.595C106.066 117.619 104.287 127.869 107.89 136.114C107.152 136.541 106.459 137.058 105.84 137.678C103.98 139.538 102.956 142.011 102.956 144.64C102.956 147.27 103.98 149.743 105.84 151.602C107.7 153.463 110.172 154.487 112.802 154.487C115.433 154.487 117.905 153.463 119.765 151.603C120.831 150.537 121.611 149.266 122.093 147.883C123.858 148.302 125.672 148.51 127.504 148.51C132.933 148.51 138.513 146.707 143.384 143.345C139.789 153.315 130.236 160.463 119.043 160.463C104.779 160.463 93.1744 148.859 93.1744 134.595C93.174 122.627 101.345 112.535 112.399 109.595ZM106.991 169.735L81.3233 144.067L89.3667 136.023C89.913 147.505 97.0095 157.294 106.991 161.742L106.991 169.735ZM86.553 168.263L93.319 161.497L96.3495 164.527L89.5834 171.293L86.553 168.263ZM75.8433 153.55C75.8433 151.001 76.8271 148.605 78.6094 146.787L90.6019 158.78L83.8358 165.546L78.6743 160.384C76.8488 158.559 75.8433 156.131 75.8433 153.55ZM92.3006 174.011L99.0666 167.245L106.991 175.169V188.701L92.3006 174.011ZM111.1 200.348C114.807 198.654 119.201 199.398 122.15 202.347C125.262 205.46 125.882 210.318 123.802 214.095C117.3 212.415 112.274 207.036 111.1 200.348ZM127.812 214.635C129.618 210.38 129.156 205.505 126.539 201.656L136.115 192.079H147.502C147.653 192.079 147.802 192.085 147.952 192.091V214.631C147.803 214.637 127.916 214.637 127.812 214.635ZM158.784 203.361C158.784 208.062 155.893 212.099 151.795 213.792V192.93C155.892 194.623 158.784 198.66 158.784 203.361ZM183.691 217.285C170.783 230.191 150.034 230.592 136.64 218.486H147.502C155.842 218.486 162.626 211.701 162.626 203.361C162.626 195.021 155.842 188.236 147.502 188.236H137.241V166.925C137.241 165.864 136.381 165.003 135.32 165.003C134.258 165.003 133.398 165.864 133.398 166.925V189.362L123.959 198.801C120.27 195.711 115.303 194.822 110.835 196.326V163.144C113.444 163.895 116.195 164.306 119.042 164.306C126.998 164.306 134.227 161.157 139.565 156.048L173.609 190.091L168.953 194.747C168.202 195.497 168.202 196.714 168.953 197.464C169.703 198.215 170.921 198.215 171.67 197.464L193.011 176.124C193.616 177.136 194.343 178.075 195.195 178.928C197.522 181.255 200.455 182.615 203.49 183.014V197.554L183.691 217.285ZM212.848 203.068L228.803 187.114L232.186 190.497C232.937 191.248 234.154 191.248 234.903 190.497C237.521 187.88 241.704 187.774 244.458 190.164L222.192 212.43L212.848 203.068ZM227.077 217.315L224.909 215.147L247.193 192.863L249.361 195.031L227.077 217.315Z" fill="white"/>
<g clip-path="url(#clip0_340_1109)">
<path d="M118.88 347.879C121.758 345 121.706 339.707 118.723 332.145C116.055 325.379 111.086 317.02 104.347 307.946C106.684 301.008 107.106 293.571 105.55 286.393C103.908 278.812 100.127 271.892 94.6175 266.382C89.1076 260.872 82.1882 257.092 74.607 255.449C67.4285 253.894 59.9912 254.315 53.0536 256.653C43.9793 249.914 35.6205 244.945 28.855 242.276C21.2931 239.294 15.9995 239.241 13.1207 242.12C11.707 243.534 11.0003 245.53 11.0003 248.091C11.0003 250.745 11.7595 254.006 13.2772 257.854C15.9453 264.619 20.9132 272.977 27.6503 282.049C26.2387 286.237 25.5264 290.606 25.5264 294.991C25.5264 297.872 25.8336 300.76 26.4503 303.606C28.0925 311.187 31.8732 318.107 37.383 323.617C42.8928 329.127 49.8122 332.907 57.3935 334.55C64.5717 336.105 72.009 335.684 78.9466 333.346C88.0206 340.085 96.3797 345.054 103.145 347.722C110.707 350.705 116.001 350.758 118.88 347.879ZM74.116 257.716C81.2612 259.264 87.7836 262.828 92.9778 268.022C98.1724 273.216 101.736 279.739 103.284 286.884C104.792 293.844 104.335 301.064 101.963 307.763C101.055 310.33 99.8674 312.801 98.4329 315.107C96.8978 317.582 95.0623 319.893 92.9775 321.978C91.0539 323.901 88.9358 325.609 86.6768 327.068C77.9741 322.188 67.31 313.71 57.2996 303.7C47.2887 293.689 38.8111 283.025 33.931 274.322C35.3898 272.064 37.0979 269.945 39.0212 268.022C41.1054 265.938 43.4168 264.102 45.8922 262.566C48.1984 261.132 50.6692 259.944 53.2359 259.036C59.935 256.664 67.1552 256.208 74.116 257.716ZM88.9966 328.306C90.9962 326.922 92.8819 325.352 94.6175 323.617C96.3527 321.882 97.9226 319.996 99.3063 317.997C102.417 324.161 103.251 328.779 101.515 330.515C99.7784 332.251 95.1608 331.417 88.9966 328.306ZM43.0033 261.694C41.0031 263.078 39.1174 264.647 37.3824 266.382C35.6472 268.118 34.0776 270.003 32.6936 272.003C29.5829 265.838 28.7486 261.221 30.4851 259.485C32.2215 257.749 36.8391 258.583 43.0033 261.694ZM57.8839 332.284C50.7387 330.736 44.2163 327.172 39.0221 321.978C33.8275 316.784 30.2637 310.261 28.7159 303.116C27.3634 296.874 27.5961 290.425 29.3679 284.33C35.688 292.587 43.3157 301.235 51.54 309.46C59.7646 317.685 68.4132 325.312 76.67 331.632C70.5742 333.404 64.1254 333.637 57.8839 332.284ZM103.995 345.566C97.2969 342.924 88.9453 337.931 79.8444 331.128C71.1428 324.623 61.9221 316.563 53.1793 307.821C44.4369 299.078 36.3774 289.857 29.8722 281.156C23.0687 272.055 18.0758 263.703 15.4338 257.004C12.8952 250.568 12.6561 245.864 14.76 243.76C16.8642 241.655 21.5678 241.895 28.0044 244.433C34.2851 246.911 42.0191 251.455 50.4617 257.62C48.6615 258.368 46.9175 259.249 45.2489 260.247C37.2283 255.962 31.5628 255.129 28.8457 257.846C27.8004 258.891 27.2802 260.373 27.2802 262.258C27.2802 265.39 28.717 269.635 31.5651 274.837C36.4881 283.831 45.2706 294.949 55.6608 305.339C66.0508 315.729 77.1681 324.512 86.1625 329.435C94.4952 333.997 100.371 334.937 103.154 332.154C105.871 329.438 105.038 323.772 100.752 315.751C101.751 314.082 102.632 312.338 103.38 310.538C109.545 318.981 114.089 326.715 116.566 332.995C119.105 339.432 119.344 344.136 117.24 346.24C115.136 348.344 110.432 348.105 103.995 345.566Z" fill="white"/>
</g>
<g clip-path="url(#clip1_340_1109)">
<path d="M256.729 28.5285C258.4 28.5285 259.971 27.8777 261.153 26.6958C263.593 24.256 263.593 20.2863 261.153 17.8467C259.972 16.6648 258.4 16.0137 256.729 16.0137C255.058 16.0137 253.486 16.6645 252.304 17.8465C249.864 20.2863 249.864 24.256 252.304 26.6958C253.486 27.8774 255.058 28.5285 256.729 28.5285ZM253.89 19.4327C254.648 18.6745 255.657 18.257 256.729 18.257C257.801 18.257 258.809 18.6745 259.567 19.4327C261.132 20.9977 261.132 23.5443 259.567 25.1095C258.809 25.8677 257.801 26.2853 256.729 26.2853C255.657 26.2853 254.648 25.8677 253.89 25.1098C252.325 23.5443 252.325 20.9977 253.89 19.4327Z" fill="white"/>
<path d="M231.572 47.4279C230.59 46.4453 229.283 45.9039 227.894 45.9039C226.504 45.9039 225.198 46.4451 224.215 47.4279C222.187 49.4561 222.187 52.7567 224.215 54.7852C225.198 55.7677 226.504 56.3089 227.894 56.3089C229.283 56.3089 230.589 55.7677 231.572 54.7852C232.555 53.8026 233.096 52.4962 233.096 51.1065C233.096 49.7168 232.555 48.4104 231.572 47.4279ZM229.986 53.1989C229.427 53.7578 228.684 54.0654 227.894 54.0654C227.103 54.0654 226.36 53.7575 225.801 53.1989C224.647 52.045 224.647 50.1677 225.801 49.0141C226.36 48.455 227.103 48.1474 227.894 48.1474C228.684 48.1474 229.427 48.4553 229.986 49.0141C230.545 49.573 230.853 50.3161 230.853 51.1065C230.853 51.897 230.545 52.6401 229.986 53.1989Z" fill="white"/>
<path d="M278.671 89.2849L249.206 59.8193C248.768 59.3813 248.058 59.3813 247.62 59.8193L244.123 63.3157L241.793 60.9855L250.467 52.3114C254.938 47.8401 256.473 41.3282 254.636 35.4346C256.248 35.9324 257.937 36.1906 259.627 36.1906C264.116 36.1906 268.336 34.4426 271.51 31.2689C274.685 28.093 276.434 23.8707 276.434 19.3797C276.434 17.2175 276.025 15.1192 275.25 13.1684L278.205 10.2141C278.415 10.0038 278.533 9.71831 278.533 9.4208C278.533 9.12329 278.415 8.83812 278.205 8.62753L270.372 0.794671C269.934 0.356676 269.223 0.356676 268.786 0.794671L265.832 3.74903C263.881 2.97427 261.783 2.56515 259.62 2.56515C255.129 2.56515 250.907 4.31405 247.731 7.48993C243.26 11.9613 241.725 18.4729 243.562 24.367C241.951 23.8693 240.261 23.611 238.572 23.611C234.083 23.611 229.862 25.3588 226.689 28.5327L218.014 37.2071L215.684 34.8769L219.18 31.3808C219.619 30.9425 219.619 30.2325 219.18 29.7945L189.715 0.328355C189.504 0.118051 189.219 0 188.922 0C188.624 0 188.339 0.118051 188.129 0.328355L174.328 14.1288C173.89 14.5671 173.89 15.2771 174.328 15.7151L203.794 45.1807C204.004 45.391 204.29 45.5091 204.587 45.5091C204.884 45.5091 205.17 45.391 205.38 45.1807L208.876 41.6846L211.206 44.0148L208.928 46.2928L208.928 46.2931L208.927 46.2936L201.995 53.2264C201.556 53.6647 201.556 54.3747 201.995 54.8126L224.187 77.0051C224.397 77.2154 224.683 77.3335 224.98 77.3335C225.277 77.3335 225.563 77.2154 225.773 77.0051L234.985 67.7932L237.315 70.1234L233.819 73.6195C233.609 73.8298 233.49 74.1152 233.49 74.4128C233.49 74.7103 233.609 74.9954 233.819 75.206L263.285 104.672C263.503 104.891 263.791 105 264.078 105C264.365 105 264.652 104.89 264.871 104.672L278.671 90.8715C278.881 90.6612 279 90.3757 279 90.0782C279 89.7807 278.881 89.4955 278.671 89.2849ZM250.931 89.1456L263.145 76.9314L269.019 82.805L256.805 95.0189L250.931 89.1456ZM243.472 81.6859L255.686 69.472L261.559 75.3454L249.345 87.5593L243.472 81.6859ZM231.913 67.6925L211.307 47.0863L223.44 34.9535L244.046 55.5597L231.913 67.6925ZM269.924 9.07618C272.53 11.6828 274.025 15.1032 274.176 18.7645L260.235 4.82354C263.897 4.9744 267.317 6.46953 269.924 9.07618ZM269.579 3.1742L275.825 9.42052L274.217 11.0289C273.483 9.75112 272.58 8.55995 271.51 7.48993C270.44 6.4199 269.249 5.51615 267.971 4.78232L269.579 3.1742ZM249.317 9.07618C251.501 6.89294 254.255 5.49175 257.243 5.00413L273.996 21.7564C273.508 24.7444 272.107 27.4994 269.924 29.6824C267.173 32.4326 263.517 33.9471 259.627 33.9471C257.381 33.9471 255.138 33.4216 253.139 32.4281L246.571 25.8602C243.784 20.2498 244.886 13.5069 249.317 9.07618ZM244.784 27.2462L251.76 34.2219C254.05 39.0869 253.462 44.7492 250.351 49.008L229.992 28.6488C232.468 26.8354 235.444 25.8543 238.572 25.8543C240.715 25.8543 242.855 26.338 244.784 27.2462ZM228.275 30.119C228.277 30.1164 228.28 30.1142 228.282 30.1117L248.888 50.7179C248.886 50.7204 248.884 50.7226 248.881 50.7252L245.633 53.9737L225.026 33.3672L228.275 30.119ZM191.441 29.6549L203.654 17.4407L209.528 23.3144L197.314 35.5283L191.441 29.6549ZM183.981 22.195L196.195 9.98105L202.068 15.8547L189.854 28.0686L183.981 22.195ZM188.922 2.70788L194.609 8.3948L182.395 20.609L176.708 14.9221L188.922 2.70788ZM204.587 42.8015L198.9 37.1145L211.114 24.9006L216.801 30.5875L208.084 39.3048L208.083 39.3054L208.083 39.3062L204.587 42.8015ZM210.462 40.0983L214.098 36.4626L216.428 38.7928L212.793 42.4285L210.462 40.0983ZM224.98 74.6259L204.374 54.0197L209.721 48.6726L230.328 69.2788L224.98 74.6259ZM236.571 66.2072L240.207 62.5718L242.537 64.9019L238.901 68.5374L236.571 66.2072ZM248.413 62.1985L254.099 67.8855L241.885 80.0994L236.198 74.4125L248.413 62.1985ZM264.078 102.292L258.391 96.6052L270.605 84.3913L276.292 90.0782L264.078 102.292Z" fill="white"/>
</g>
<path d="M54.5 11.375L57.4687 18.9022C57.7428 19.5971 57.8797 19.9445 58.0895 20.2374C58.2755 20.4971 58.5028 20.7245 58.7626 20.9104C59.0555 21.1202 59.4029 21.2573 60.0978 21.5313L67.625 24.5L60.0978 27.4687C59.4029 27.7428 59.0555 27.8797 58.7626 28.0895C58.5028 28.2755 58.2755 28.5028 58.0895 28.7626C57.8797 29.0555 57.7428 29.4029 57.4687 30.0978L54.5 37.625L51.5313 30.0978C51.2573 29.4029 51.1202 29.0555 50.9104 28.7626C50.7245 28.5028 50.4971 28.2755 50.2374 28.0895C49.9445 27.8797 49.5971 27.7428 48.9022 27.4687L41.375 24.5L48.9022 21.5313C49.5971 21.2573 49.9445 21.1202 50.2374 20.9104C50.4971 20.7245 50.7245 20.4971 50.9104 20.2374C51.1202 19.9445 51.2573 19.5971 51.5313 18.9022L54.5 11.375Z" stroke="white" stroke-width="3" stroke-linecap="round" stroke-linejoin="round"/>
<path d="M174.5 267.375L177.469 274.902C177.743 275.597 177.88 275.944 178.09 276.237C178.275 276.497 178.503 276.724 178.763 276.91C179.056 277.12 179.403 277.257 180.098 277.531L187.625 280.5L180.098 283.469C179.403 283.743 179.056 283.88 178.763 284.09C178.503 284.275 178.275 284.503 178.09 284.763C177.88 285.056 177.743 285.403 177.469 286.098L174.5 293.625L171.531 286.098C171.257 285.403 171.12 285.056 170.91 284.763C170.724 284.503 170.497 284.275 170.237 284.09C169.944 283.88 169.597 283.743 168.902 283.469L161.375 280.5L168.902 277.531C169.597 277.257 169.944 277.12 170.237 276.91C170.497 276.724 170.724 276.497 170.91 276.237C171.12 275.944 171.257 275.597 171.531 274.902L174.5 267.375Z" stroke="white" stroke-width="3" stroke-linecap="round" stroke-linejoin="round"/>
<path d="M264.5 297.375L267.469 304.902C267.743 305.597 267.88 305.944 268.09 306.237C268.275 306.497 268.503 306.724 268.763 306.91C269.056 307.12 269.403 307.257 270.098 307.531L277.625 310.5L270.098 313.469C269.403 313.743 269.056 313.88 268.763 314.09C268.503 314.275 268.275 314.503 268.09 314.763C267.88 315.056 267.743 315.403 267.469 316.098L264.5 323.625L261.531 316.098C261.257 315.403 261.12 315.056 260.91 314.763C260.724 314.503 260.497 314.275 260.237 314.09C259.944 313.88 259.597 313.743 258.902 313.469L251.375 310.5L258.902 307.531C259.597 307.257 259.944 307.12 260.237 306.91C260.497 306.724 260.724 306.497 260.91 306.237C261.12 305.944 261.257 305.597 261.531 304.902L264.5 297.375Z" stroke="white" stroke-width="3" stroke-linecap="round" stroke-linejoin="round"/>
<circle cx="86.5" cy="13.5" r="2.5" fill="white"/>
<circle cx="203.5" cy="291.5" r="2.5" fill="white"/>
<circle cx="250.5" cy="270.5" r="2.5" fill="white"/>
<circle cx="279.5" cy="177.5" r="2.5" fill="white"/>
<circle cx="2.5" cy="104.5" r="2.5" fill="white"/>
<defs>
<clipPath id="clip0_340_1109">
<rect width="110" height="110" fill="white" transform="translate(121 240) rotate(90)"/>
</clipPath>
<clipPath id="clip1_340_1109">
<rect width="105" height="105" fill="white" transform="translate(174)"/>
</clipPath>
</defs>
</svg>
